<?xml version="1.0" encoding="UTF-8"?>
<svg id="Capa_1" xmlns="http://www.w3.org/2000/svg" version="1.1" viewBox="0 0 622.76 1106.32">
  <!-- Generator: Adobe Illustrator 30.6.0, SVG Export Plug-In . SVG Version: 2.1.4 Build 109)  -->
  <defs>
    <style>
      .st0 {
        fill: #010102;
      }

      .st1 {
        fill: #003ab9;
      }

      .st2 {
        fill: #008afb;
      }

      .st3 {
        fill: #004de1;
      }

      .st4 {
        fill: #fff;
      }

      .st5 {
        fill: #0e1e37;
      }

      .st6 {
        fill: #000b17;
      }

      .st7 {
        fill: #00c0fe;
      }

      .st8 {
        fill: #dedede;
      }
    </style>
  </defs>
  <path class="st0" d="M179.41,823.34c.48-.02.87-.4.91-.88.53-6.65,3.11-15.85,8.19-20.29.11-.1.2-.22.27-.35l3.24-6.26c.14-.26.06-.59-.19-.76-4.97-3.46-8.96-8.1-11.97-13.92-8.75-16.91-12.92-36.51-15.51-55.58-2.47-18.13-3.76-36.9-3.89-56.33,0-.38-.3-.68-.68-.68-.1,0-.19.02-.28.06l-1.15.51c-.42.19-.71.58-.77,1.03-.17,1.21-.29,1.91-.36,2.1-6.72,16.86-14.2,32.8-22.45,47.82-2.64,4.82-6.33,9.04-12.17,9.94-.57.09-1.01.56-1.06,1.14-.35,4.05-1.56,8.08-3.64,12.11-.14.27-.06.61.2.78,6.48,4.25,7.65,10.57,7.05,18.4-1.8,23.59-6.1,47.21-12.9,70.84-3.03,10.54-6.05,21.18-18.28,23.6-.55.11-.9.64-.79,1.18.02.08.04.16.08.24,4.68,9.82,8.76,16.95,9.34,26.97.03.46.15.91.37,1.32.79,1.51,1.25,2.52,1.37,3.01,2.21,8.92,4.51,23.23-2.72,29.5-7.68,6.64-18.66,3.01-22.88-5.74-2.51-5.2-3.75-10.64-3.73-16.32,0-.29-.12-.57-.32-.77l-4.59-4.59c-.13-.12-.33-.12-.45,0-.02.02-.03.04-.04.06-2.5,4.25-5.21,7.76-8.14,10.55-.14.14-.21.35-.18.55l2.54,16.54c.03.21.13.41.27.57,2.19,2.32,4.66,5.19,7.39,8.62,5.73,7.17,6.2,17.87-2.89,22.64-2.28,1.2-4.1,3.6-7.02,4.12-7.67,1.36-13.77-.61-21.15-4.14-6.33-3.03-11.31-6.23-14.96-9.59-7.45-6.85-13.32-16.07-17.61-27.64-.38-1.03-.7-2.52-.96-4.45-.3-2.25-1.78-3.63-2.34-5.99-.95-4-1.53-8.27-1.73-12.82-.68-15.05,1.62-29.2,6.91-42.45.13-.34.05-.72-.21-.97-1.14-1.07-2.73-2.01-3.86-3.25-4.14-4.57-6.01-10.11-5.62-16.62.48-7.95,1.53-16.19,3.15-24.71,3.7-19.5,9.19-38.83,16.48-57.99,2.67-7.03,5.36-13.16,8.07-18.39,1.37-2.65,3.09-5.02,5.14-7.09,1.75-1.77,7.47-5.19,10.79-4.26.49.13.88.18,1.19.15.32-.04.59-.27.67-.58,1.27-4.99,3.27-9.45,5.98-13.36.18-.26.19-.6.02-.87-4.82-7.61-2.06-15.21,1.08-22.87,10.89-26.6,25.72-53.28,45.99-73.51,3.73-3.73,8.05-6.72,12.98-8.98.32-.15.58-.41.74-.73,2.98-6.23,6.62-11.13,10.93-14.68,11.17-9.23,24.04-13.72,38.61-13.46,2.75.05,5.66.76,8.73,2.13.84.38,2.64.52,5.41.42.32-.01.61-.19.77-.46,2.03-3.53,4.61-6.05,7.74-7.58,5.65-2.76,13.01-4.6,18.44-6.05,10.11-2.69,20.55-4.41,31.3-5.16.27-.02.47-.25.45-.52,0-.06-.02-.11-.04-.16l-.12-.26c-.1-.23-.33-.38-.59-.39-6.28-.09-13.38-.66-21.31-1.71-32.86-4.38-65.57-9.83-95.21-24.44-25.49-12.56-46.83-34.22-57.04-60.68-.13-.34-.47-.55-.84-.53-10.63.64-21.25-2.46-30.75-6.62-6.61-2.89-8.06-11.06-8.26-17.57-.02-.74-.52-1.39-1.24-1.58-11.73-3.19-14.45-12.5-16.03-23.11-1.57-10.5-2.09-19.98-2.71-31.85-.94-18.28.13-36.66,2.55-54.52,1.42-10.5,4.57-20.6,16.33-23.27.34-.08.59-.37.61-.72.31-5.8.83-11.58,4.4-16.07,1.17-1.47,3.3-2.81,6.41-4.04,8.2-3.25,17.46-6.14,25.85-5.61.34.02.64-.2.73-.53,5.57-21.07,14.17-40.6,25.82-58.59,15.41-23.81,35.58-43.05,60.51-57.7,15.65-9.21,30.84-16.06,45.58-20.56.55-.17,1.05-.47,1.46-.88,2.58-2.57,6.23-4.79,10.94-6.67,7.57-3.02,14.82-5.43,21.75-7.24,19.91-5.19,40.43-8.46,61.55-9.81.58-.03,1.06-.46,1.16-1.04,1.7-9.69,4.01-15.08,14.93-16.52.31-.04.55-.31.55-.63v-26.06c0-.33-.21-.63-.53-.73-20.27-6.67-29.78-29.43-20.76-48.58C285.94,8.17,298.61-.28,311.86,0c12.66.27,22.47,5.69,29.43,16.25,12.29,18.65,3,45.09-18.01,52.2-.4.13-.67.51-.67.93v26.23c0,.2.15.38.36.41,6.08.76,10.93,2.56,12.99,9.09,1.2,3.81,1.89,6.4,2.07,7.79.04.33.31.59.64.62,2.53.22,5.43.47,8.7.74,19.17,1.59,38.03,4.96,56.56,10.11,9.39,2.61,20.74,5.97,28.58,12.4.66.54,1.41.96,2.21,1.22,20.35,6.69,39.34,16.13,56.98,28.32,24.75,17.11,43.98,38.86,57.69,65.26,6.96,13.39,12.5,27.89,16.62,43.48.07.28.34.47.63.46,9.04-.37,19.61,2.95,27.47,6.18,7.82,3.22,9.07,11.67,9.06,19.13,0,.65.44,1.22,1.08,1.38,10.42,2.52,13.69,9.64,15.24,19.59,4.5,29.01,4.12,59.28.3,89.11-1.4,10.93-4.41,21.01-16.46,23.81-.32.07-.55.35-.56.67-.11,3.12-.63,6.49-1.57,10.12-1.08,4.16-3.63,7.09-7.64,8.8-8.13,3.47-16.27,5.61-24.42,6.43-2.27.23-4.13.1-5.58-.39-.31-.1-.65.04-.79.34-2.05,4.32-3.72,8.74-5.83,12.43-13.37,23.39-32.23,40.41-56.57,51.07-15.11,6.61-31.26,11.7-48.44,15.27-5.01,1.04-13.47,2.55-25.38,4.53-11.13,1.85-23.15,3.19-36.05,4.03-.2.01-.38.07-.54.18-.2.13-.26.41-.12.61.08.11.2.18.34.2,14.64,1.38,30.39,4.51,45.3,10.32,4.01,1.56,7.2,4.39,9.55,8.49.22.38.62.62,1.06.62h3.51c.19,0,.37-.04.53-.13,2.73-1.47,5.81-2.29,9.26-2.45,20.16-.96,42.21,8.9,50.61,28.24.13.32.39.57.72.69,3.25,1.23,5.55,2.37,6.88,3.44,6.39,5.12,12.29,11.22,17.7,18.29,14.46,18.89,25.99,39.28,34.6,61.17,2.87,7.3,5.49,15.24.6,22.38-.2.29-.19.68.03.96,2.91,3.85,4.87,8.23,5.88,13.12.05.25.28.43.54.41,9.54-.56,14.84,6.31,18.49,14.34,11.39,25.01,19.16,52.08,23.73,78.75,1.09,6.33,1.78,12.83,2.09,19.52.41,8.62-2.78,15.35-9.55,20.2-.16.11-.22.31-.14.48,6.69,16.01,8.01,35.13,5.87,52.15-.39,3.09-1.25,5.53-2.58,7.32-.26.36-.45.77-.55,1.2-3.77,16.64-14.71,33.09-30.3,40.82-7.21,3.57-21.66,10.46-28.48,2.92-.3-.33-.72-.54-1.17-.57-6.93-.53-10.85-4.23-11.76-11.08-1.08-8.16,6.96-15.59,11.8-21.17.19-.22.31-.49.36-.78l2.62-16.31c.03-.18-.03-.35-.16-.47-2.73-2.66-5.26-6.18-7.58-10.55-.18-.33-.6-.46-.93-.28-.07.04-.13.08-.18.14l-4.49,4.94c-.13.14-.21.33-.22.52-.5,6.21-1.78,11.51-3.84,15.9-3.61,7.7-12.47,12.31-20.52,8.02-8.87-4.73-7.81-15.99-6.53-24.62.61-4.09,1.53-7.29,2.74-9.59.21-.4.34-.83.38-1.28.9-9.79,4.57-18.77,11.02-26.96.35-.44.28-1.08-.17-1.43-.12-.1-.26-.16-.41-.2-11.33-2.53-14.6-12.7-17.46-22.99-6.77-24.29-10.97-47.73-12.6-70.3-.58-8.08.05-14.94,7.25-19.7.28-.19.37-.56.22-.86-2.08-4.05-3.34-8.14-3.77-12.29-.03-.32-.27-.59-.59-.64-3.97-.69-7.11-2.78-9.43-6.28-2.7-4.08-5.32-8.62-7.85-13.63-4.71-9.31-9.68-19.84-14.91-31.57-1.88-4.22-2.83-7.15-2.84-8.79,0-.31-.26-.56-.57-.55,0,0-.01,0-.02,0-.52.03-1.45-.29-2.78-.95-.21-.1-.47-.02-.58.2-.03.06-.04.12-.04.18-.01.85-.14,7.39-.39,19.6-.09,4.44-1.07,15.78-2.94,34.03-1.32,12.82-3.91,25.83-7.77,39.04-2.5,8.57-6.2,17.28-10.39,23.98-2.45,3.92-5.59,7.29-9.4,10.12-.22.16-.26.47-.1.69.01.02.02.03.04.04,1.27,1.36,2.11,2.8,2.52,4.32.18.64.55,1.22,1.06,1.65,5.95,4.93,8.12,13.47,8.81,20.85.04.38.33.69.71.76.09.01.35-.02.78-.11.39-.07.72-.08.98-.02,3.94.94,6.93,3.25,8.97,6.93,2.51,4.53,5.25,10.37,8.21,17.5,3.65,8.77,7.21,18.46,10.69,29.05,5.46,16.63,10.42,33.9,14.89,51.83,1.68,6.75,4.24,18.51,7.68,35.29,3.34,16.28,5.94,32.96,7.79,50.05.49,4.51.07,9.24-1.26,14.19-.08.31,0,.65.2.89,8.35,9.75,13.62,20.9,15.82,33.43.08.5.35.94.74,1.26,1.79,1.45,2.89,3.87,3.28,7.25.59,5.08,1,11.19,1.22,18.34.09,2.72-.81,4.63-2.69,5.73-7.78,4.56-17.98,6.44-27.61,7.83-20.43,2.95-42.05,4.03-64.85,3.22-26.57-.94-53.98-4.82-79.13-13.62-2.75-.96-10.55-3.56-11.84-6.3-.33-.69-.46-1.54-.41-2.53.3-5.72.71-12.29,1.24-19.71.19-2.71.87-4.44,2.06-5.18.31-.2.52-.52.56-.88l1.87-15.28c.02-.19-.02-.38-.1-.55-2.16-4.3-2.96-8.97-3.55-14.59-.95-9.04-1.47-19.29-1.57-30.74-.33-38.2,2.68-76.42,9.02-114.67,1.43-8.63,2.02-13.87,9.34-17.49.38-.19.53-.64.35-1.01,0,0-.01-.02-.02-.03-2.65-4.77-3.7-9.63-3.16-14.59.04-.37-.13-.73-.44-.94-.74-.49-1.47-1.31-2.19-2.46-.21-.33-.6-.49-.97-.39-8.14,2.05-16.62,3.3-25.45,3.76-17.17.89-32.23-.09-48.71-3.57-.32-.06-.65.04-.88.27l-2.66,2.66c-.24.24-.36.58-.31.92.64,4.72-.33,9.43-2.92,14.13-.25.44-.09,1,.36,1.24.01,0,.02.01.03.02,6.69,3.38,7.54,9.02,8.72,15.99,6.65,39.1,9.74,78.4,9.27,117.91-.09,7.92-.62,17.17-1.58,27.76-.63,6.93-1.77,12.07-3.44,15.4-.13.25-.18.54-.15.82l1.65,15.68c.03.24.15.47.34.62.73.55,1.3,1.17,1.71,1.85.23.39.38.82.43,1.27.75,6.93,1.2,14.3,1.37,22.12.05,1.98-.83,3.43-2.62,4.36-2.9,1.5-6.44,2.95-10.61,4.35-14.07,4.74-29.33,8.23-45.77,10.46-28.89,3.93-58.47,4.25-88.74.94-10.86-1.19-22.6-2.88-32.39-6.72-3.01-1.18-5.48-2.31-6.84-5.2-.18-.38-.26-.8-.25-1.22.26-9.56.87-17.11,1.84-22.65.29-1.66,1.32-3.15,3.1-4.48.33-.25.56-.62.63-1.04,2.17-12.59,7.28-23.74,15.33-33.43.27-.32.37-.75.29-1.16-.89-4.57-1.2-8.96-.82-14,.89-11.59,2.4-23.23,4.53-34.91,7.4-40.44,17.71-81.6,31.44-119.5,4.15-11.46,8.46-21.3,12.94-29.53,2.37-4.35,6.04-6.64,11-6.88ZM283.72,49.84c2.55,4.9,6.33,9.05,10.98,12.04,4.49,2.89,9.63,4.6,14.95,4.97,9.73.69,19.24-3.12,25.79-10.35,6.46-7.13,9.34-16.79,7.85-26.29-.61-3.82-1.9-7.5-3.82-10.85-3.87-6.74-10.06-11.83-17.42-14.31-4.87-1.64-10.07-2.08-15.14-1.27-6.15.98-11.88,3.74-16.47,7.94-3.96,3.63-6.94,8.2-8.66,13.29-2.76,8.2-2.06,17.16,1.94,24.83ZM305.4,70.19c-.4,0-.72.32-.72.72h0v23.76c0,.4.32.72.72.72h13.44c.4,0,.72-.32.72-.72v-23.76c0-.4-.32-.72-.72-.72h-13.44ZM313.17,98.92c-3.69-.23-7.3,0-10.81.72-5.89-1.87-10.26,1.13-11.74,6.79-.45,1.73-1.1,3.73-1.93,5.99-.17.48.07,1.02.55,1.19.13.05.27.06.41.05,5.2-.55,8.45-.9,12.99-.85,10.1.1,17.05.14,20.86.13,4.1-.02,8.49.69,11.51.67.51,0,.93-.43.92-.94,0-.14-.03-.27-.09-.39-1.23-2.52-2.26-5-3.1-7.44-1.18-3.4-3.18-5.17-6.41-5.63-4.42-.63-8.81-.72-13.16-.29ZM190.7,144.3c-.74,8.27,1.95,15.02,8.07,20.24,4.79,4.08,10.21,7.15,16.26,9.21,17.88,6.09,37.37,8.76,56.73,10.24,21.66,1.67,44.12,1.97,67.37.9,20.72-.95,41.38-3.49,60.8-8.43,13.53-3.44,28.16-9.92,32.98-24.17.07-.19.1-.39.11-.6l.16-7.35c-.69-3.67-3.26-6.49-7.72-8.48-7.89-3.51-12.97-5.6-15.23-6.28-25.15-7.57-50.85-11.87-77.1-12.89-27.14-1.06-49.27-.72-72.75,2.51-17.47,2.4-34.64,6.38-51.53,11.94-2.64.87-6.17,2.42-10.59,4.67-4.33,2.19-6.85,5.02-7.56,8.49ZM52.02,370.7c.04,15.81.8,31.56,2.29,47.27,1.07,11.26,2.52,20.36,4.36,27.3,8.78,33.1,28.54,57.33,59.29,72.7,14.33,7.16,29.83,12.61,46.51,16.34,15.37,3.44,30.23,6.1,44.56,7.97,7.14.93,13.06,1.23,19.49,2.02,3.23.39,8.11.81,14.62,1.25,45.04,3.02,89.74,3.1,134.11.25,22.75-1.46,44.45-4.1,65.1-7.93,18.68-3.46,35.72-8.26,51.11-14.41,12.85-5.14,24.22-11.84,34.11-20.1,18.86-15.75,32.93-38.09,37.41-62.64,2.36-12.91,3.85-25.94,4.48-39.09.99-22.89,1.17-45.8.55-68.73-.49-17.82-2.6-35.6-6.35-53.34-2.73-12.89-6.39-24.45-10.98-34.68-14.33-31.88-36.22-57.72-65.68-77.52-15.83-10.63-32.78-19.07-50.85-25.3-.16-.06-.34.02-.4.19-.02.07-.03.14,0,.2,2.34,7.3-.87,15.77-5.79,21.31-8.42,9.49-21.54,14.2-33.81,16.96-25.46,5.72-51,7.44-77.87,7.73-29.91.32-57.77-.92-85.19-6.44-16.19-3.26-39.3-9.76-44.87-27.86-1.23-3.98-1.27-7.93-.14-11.84.03-.1-.02-.22-.13-.25-.04-.01-.09-.01-.13,0-16.17,5.67-31.36,12.91-45.56,21.73-34.82,21.65-62.03,53.61-75.93,92.09-8.3,22.96-11.96,46.65-13.26,71.05-.77,14.59-1.12,29.18-1.05,43.77ZM22.04,387.33c-.46,11.09.75,24.04.92,33.02.11,5.56.35,11,.73,16.32.44,6.05,2.12,12.31,8.34,14.85,1.85.76,3.89,1.79,5.91,2.34,3.37.92,7.79,1.99,13.25,3.2,2.43.53,4.68.68,6.75.45.4-.04.68-.4.64-.8,0-.04-.01-.07-.02-.11-1.71-6.1-2.87-10.18-3.5-12.24-.72-2.33-1.51-6.48-2.37-12.45-1.71-11.75-2.8-23.56-3.27-35.43-.5-9.59-.68-23.42-.53-41.49.19-24.14,1.69-45,4.52-62.58.75-4.69,2.28-9.81,2.86-13.37.06-.35-.18-.68-.52-.73-.05,0-.11-.01-.16,0-7.9.62-16.69,3.14-23.54,5.56-7.88,2.78-8.76,10.95-8.93,18.32-.18,8.03-.56,16.78-1.15,26.25-.65,10.63-.62,30.26.07,58.9ZM573.45,393.71c-.67,7.42-1.23,14.84-1.7,22.26-.19,2.97-.49,5.63-.9,7.97-1.19,6.79-1.37,13.55-3.03,19.81-1.05,3.98-2.3,8.27-3.75,12.87-.16.49.12,1.01.62,1.17.07.02.15.04.22.04,2.33.13,4.79-.06,7.36-.57,5.15-1.02,10.34-2.4,15.55-4.15,6.01-2.01,10.2-5.1,11.08-11.68.11-.84.5-6.17,1.15-16,.39-5.84.73-19.16,1-39.95l-.02-47.36-.08-8.39c-.02-13.53-.39-24.71-1.1-33.53-.19-2.33-1.11-4.96-2.77-7.91-1.38-2.42-4.72-4.14-6.93-4.88-7.64-2.57-15.22-4.25-22.74-5.02-.26-.03-.5.17-.52.43,0,.06,0,.11.01.17.83,3.07,1.5,6.28,2.03,9.63,1.53,9.65,2.71,19.46,3.54,29.45.54,6.63.49,11.49.83,16.45.21,3.01.32,7.12.33,12.33.04,15.63-.02,31.25-.18,46.86ZM3.89,376.98c-.09,3.61,0,7.09.26,10.45.69,8.75,1.74,18.12,3.13,28.11,1.14,8.15,5.27,13.46,12.38,15.95.23.08.48-.05.56-.28.02-.05.02-.1.02-.15l-1.7-45.85c.23-15.92-.22-34.75.11-47.71.25-9.87.63-20.5,1.16-31.91.01-.23-.17-.42-.4-.43-.05,0-.1,0-.14.02-6.11,1.97-9.86,6.07-11.24,12.31-1.88,8.47-3.17,18.36-3.88,29.69-.45,7.16-.53,17.09-.26,29.8ZM604.17,385.55l-1.23,45.36c0,.22.17.39.38.4.04,0,.08,0,.11-.02,3.78-1.16,6.74-3.3,8.87-6.41,2.65-3.85,3.14-8.19,3.92-13.03,1.83-11.31,2.8-22.72,2.91-34.22.59-17.77-.24-35.51-2.5-53.2-1.06-8.32-3.48-16.07-12.42-19.2-.21-.08-.44.03-.51.23-.02.05-.03.1-.03.16.32,10.08.22,18.12.7,28.55.15,3.37.2,7.87.15,13.51-.11,12.35-.23,24.97-.35,37.87ZM385.47,549.63c-1.98-1.17-3.94-1.72-5.87-1.64-8.22.33-13.93.68-17.14,1.05-10.67,1.26-20.83.64-32.8,1.34-7,.4-13.35.06-20.61.44-2.83.15-7.71.11-14.62-.12-2.75-.09-7.63-.15-14.66-.2-3.55-.02-12.74-.58-27.58-1.67-4.16-.31-8.75-1.5-13.47-1.23-.81.04-1.44.73-1.41,1.54.2,4.92-.1,8.54,2.79,12.61.2.28.46.52.76.69,3.35,1.89,6.88,3.62,10.58,5.18,2.58,1.09,6.38,1.98,11.4,2.68,6.43.9,12.74,1.85,18.95,2.84,5.23.84,10.42,1.27,15.57,1.28,5.71.01,14.21.04,25.52.09,3.37.01,7-.23,10.89-.74,10.37-1.36,17.89-1.92,29.47-3.63,1.37-.21,2.71-.59,3.98-1.14,4.93-2.14,8.63-3.69,11.09-4.64,1.84-.71,7.13-3.97,6.87-6.54-.3-2.85-.11-5.33.58-7.45.09-.28-.03-.59-.29-.74ZM179.18,570.46c-2.83,6.92-5.09,14.08-6.78,21.47-5.8,25.39-8.64,51.16-8.52,77.32.21,26.64,2.04,50.76,6.99,74.93,2.45,11.95,5.98,22.77,10.58,32.45,2.59,5.45,5.83,10.59,10.7,14.33,1.22.93,3.24,1.8,6.05,2.59,4.07,1.15,8.44,2.73,13.11,4.74,16.83,7.25,32.5,16.82,47.02,28.69,2.66,2.18,7.84,6.82,15.53,13.92.29.27.62.5.98.69,1.13.57,2.08.93,2.84,1.08,19.69,3.87,39.77,4.31,60.24,1.31,2.51-.37,5.28-.93,8.3-1.68.85-.21,1.63-.66,2.22-1.31,19.68-21.25,43.3-36.73,70.85-46.43,2.55-.89,5.05-1.58,7.5-2.05.48-.09.94-.3,1.33-.6,6.59-5.08,11.2-13.13,14.13-20.77,3.69-9.63,6.31-18.37,7.86-26.22,4.47-22.59,6.86-45.59,7.15-68.99.12-9.69-.24-19.34-1.07-28.93-1.2-26.61-5.83-52.5-13.89-77.67-1.73-2.81-4.27-5.04-7.6-6.71-6.2-3.09-10.19-3.91-18.19-5.86-9.16-2.23-18.6-3.82-28.33-4.75-.35-.04-.66.22-.69.56-.01.1,0,.2.04.3,1.59,4.08.68,7.67-2.73,10.77-5.86,5.03-13.17,7.12-20.88,8.79-24.96,5.44-52.48,6.13-76.22,4.33-12.93-.79-25.56-2.91-37.91-6.38-7.36-2.06-18.62-8.13-13.81-17.48.17-.32.04-.72-.28-.89-.12-.06-.25-.08-.38-.07-12.01,1.25-23.95,3.48-35.8,6.67-8.71,2.34-15.97,4.26-20.34,11.85ZM166.75,569.33c-8.26-.46-15.77,1.15-24.86,2.8-.4.07-.79.21-1.15.42-.83.49-4.87,2.78-12.14,6.87-4.02,2.26-6.88,4.58-8.57,6.96-3.25,4.56-5.03,10.56-5.34,17.99-.06,1.33-.24,2.69-.54,4.07-.11.49-.1,1.01.02,1.5,2.35,9.84,6.82,19.31,12.05,27.66,2.21,3.53,4.34,6.35,6.38,8.46,3.02,3.11,5.6,7.1,9.21,10.22,2.13,1.85,4.59,4.03,7.38,6.54,2.71,2.44,5.76,3.28,9.15,2.52.57-.13.95-.67.88-1.25-.7-6.18-4.72-11.23-5.94-17.12-1-4.78-.98-9.4-1.34-14.75-.15-2.24-.07-5.21.26-8.92.19-2.18.45-5.89.77-11.14.34-5.67,1.65-16.04,4.06-22.77,2.64-7.43,4.7-13.38,10.21-18.76.3-.29.3-.78,0-1.07-.13-.13-.31-.21-.5-.23ZM458.56,573.85c2.01,7.29,4.15,13.17,6.4,17.66.69,1.39,1.11,2.89,1.22,4.43.31,4.26.92,9.18,1.83,14.77.31,1.9.7,7.07,1.18,15.51.15,2.82.09,5.52-.18,8.11-.44,4.12-.4,11.91-2.4,16.84-2.39,5.86-3.99,9.84-4.8,11.94-.07.19-.1.4-.09.6.08,1.01.46,1.8,1.13,2.37.27.23.62.33.97.27,2.53-.4,4.23-.95,5.1-1.66,2.64-2.15,5.73-4.5,9.27-7.05.85-.61,1.58-1.36,2.18-2.22l1.74-2.52c.48-.69,1.09-1.27,1.8-1.71,5.14-3.19,6.61-6.5,10.43-12.9.23-.37.49-.72.79-1.03,4.54-4.69,5.2-10.35,8.06-16,3.31-6.55,4.6-14.31,3.89-23.28-.58-7.23-6.42-14.24-12.21-18.03-3.64-2.38-7.95-4.81-12.93-7.3-2.77-1.38-5.15-2.16-7.15-2.35-2.89-.27-4.82-.47-5.79-.6-1.08-.09-2.17-.09-3.25,0l-8.79.73c-.29.03-.5.28-.47.57,0,.1.05.2.11.27l1.78,2.22c.08.11.14.23.18.36ZM446.26,571.53c0,.31.07.6.19.88,1.21,2.88,2.34,5.4,3.06,8.63,1.37,6.13,2.98,12.32,3.93,18.59.41,2.71,1.06,5.71,1.95,9.02.51,1.89,1.09,8.05,1.75,18.46.25,3.98,1.44,7,1.59,10.83.19,4.79,1.34,8.84.83,13.47-.41,3.71-.52,7.14-.35,10.28.02.26.24.46.49.44.18,0,.34-.13.41-.3,1.04-2.86,2.03-5.58,2.34-8.36.41-3.74,1-7.62,1.77-11.65,1.84-9.56,2.65-20.63.99-29.64-2.33-12.67-3.81-20.28-4.44-22.83-1.97-7.85-6.07-14.84-12.65-18.87-.57-.35-1.33-.18-1.68.4-.12.2-.18.42-.18.65ZM173.12,574.69c.71-.57,1.08-1.09,1.1-1.57.02-.38-.28-.69-.66-.71-.01,0-.02,0-.03,0-3.42.03-5.91,1.56-7.46,4.61-5.71,11.2-9.28,23.37-10.69,36.5-.62,5.76.16,11.78.18,16.84,0,2.9.54,7.07,1.6,12.5.67,3.43,1.48,8.02,2.41,13.77.04.25.28.43.54.39.18-.03.33-.16.37-.34.27-.99.41-2.18.42-3.57.18-14.8,2.75-30.4,4.29-43.48.31-2.62.87-5.54,1.68-8.76,2.21-8.87,3.9-15.47,5.05-19.81.48-1.79.39-4.07.71-5.58.07-.31.24-.59.49-.79ZM103.11,718.08l17.54,8.54c.35.17.74.21,1.12.13,3.05-.66,5.49-2.2,7.32-4.63,2.58-3.42,5.08-7.58,7.49-12.48,3.98-8.09,8.58-17.91,13.79-29.46.98-2.17,1.89-4.46,2.73-6.89.67-1.09.95-2.21.85-3.38-.04-.41-.28-.78-.65-.98-12.46-6.68-22.32-17.9-29.79-29.89-7.79-12.49-13.42-26.43-12.03-40.2.02-.18-.11-.34-.3-.36-.07,0-.13,0-.19.04-8.72,4.79-15.81,13.04-22.07,21.21-11.89,15.52-22.04,32.62-30.46,51.31-1.75,3.87-3.51,8.77-5.28,14.7-1.45,4.83-1.16,8.77.86,11.84.17.26.45.42.76.45l2.28.18c.25.02.48.07.71.15,6.15,2.19,12.13,4.6,17.96,7.23,9.11,4.11,18.23,8.28,27.36,12.49ZM492.14,721.12c2.06,3.22,4.8,5,8.21,5.34.48.05.96-.04,1.39-.25l13.79-6.76c12.79-6.09,27.42-12.59,43.87-19.5,3.23-1.35,5.91-1.99,8.05-1.92.4.01.77-.21.94-.57,2.79-5.81.97-11.6-1.3-17.49-8.56-22.16-20.02-42.54-34.37-61.13-6.29-8.17-12.88-15.98-21.56-20.42-.1-.05-.22-.02-.27.08-.02.03-.02.06-.02.09-.05,22.3-12.02,43.39-27.67,59.16-4.44,4.48-9.47,8.29-15.09,11.43-.33.19-.48.59-.34.95,6.51,16.26,13.81,32.01,21.89,47.26.47.89,1.3,2.14,2.48,3.73ZM102.29,725.61c-.33.18-.73.06-.91-.27-.02-.04-.04-.08-.05-.12-1.01-3.25-2.63-5.57-4.84-6.95-3.43-2.15-7.21-3.87-11.33-5.17-8.6-2.71-16.18-8.26-25.06-9.84-.51-.09-.99-.28-1.42-.58l-2.05-1.42c-.51-.36-1.22-.24-1.59.27-2.99,4.15-5.95,7.9-6.52,13.04-.15,1.39.16,2.47.95,3.24,2.64,2.58,5.71,4.48,9.22,5.7,1.7.6,2.94,1.92,4.33,2.45.97.37,2.05.85,3.24,1.44,7.27,3.65,11.92,5.74,13.95,6.27,6.1,1.57,11.24,3.26,15.43,5.05,5.19,2.23,9.16,2.91,15.4,4.85,1.93.6,3.23,0,3.92-1.81,2.52-6.67,3.86-10.18,4.02-10.51.82-1.68.4-2.81-1.25-3.4-2.95-1.05-5.76-2.03-8.41-2.95-2.6-.9-4.5-.7-7.03.71ZM573.1,716.87c.47-.29.7-.84.56-1.37-.81-3.07-1.86-6.11-3.14-9.12-2.19-5.14-6.13-5.38-10.46-3.19-3,1.52-5.23,2.82-8.84,4.12-3.01,1.08-6.15,2.37-9.4,3.86-4.77,2.18-10.28,3.35-14.74,5.72-4.1,2.17-6.82,4.42-11.35,6.1-5.2,1.92-8.58,3.05-12.08,5.65-.37.27-.56.74-.49,1.2.62,3.61,2.88,9.9,6.68,11.22,4.43,1.56,11.09.07,16.42-2.43,3.25-1.52,7.6-2.9,13.07-4.14.33-.07.64-.18.95-.31l15.16-6.77c.29-.13.56-.27.83-.43l16.83-10.11ZM515.11,745.41c-2.18.58-4.4,1.06-6.66,1.43-1.28.21-2.21-.62-3.05-.47-.35.06-.69.2-.98.42-2.86,2.2-4.41,5.2-4.66,9-.25,3.91-.24,7.3.04,10.15,1.72,17.51,4.5,34.75,8.33,51.7,2.19,9.71,5.08,18.87,8.65,27.46,2.44,4,5.49,6.69,9.16,8.06.3.11.64-.01.8-.29,1.22-2.13,2.27-3.54,3.14-4.22,5.13-3.98,12.3-7.29,21.49-9.93,14.63-4.2,28.82-5.42,42.58-3.66,5.7.96,13.88,2.63,15.85,8.94.08.24.33.38.58.3.06-.02.12-.05.16-.09,3.88-3.27,6.19-7.11,6.94-11.53.31-2.08.4-4.16.28-6.25-.36-6.02-1.01-11.85-1.94-17.48-4.13-25.01-11.14-49.4-21.04-73.15-3.14-7.54-7.1-16.68-15.99-18.36-.42-.08-.85.04-1.17.32-7.2,6.37-16.1,10.43-25.27,14.37-12.13,5.21-24.54,9.64-37.24,13.28ZM78.13,842.11c5.52,2.25,12.71,5.49,15.89,10.81.16.28.5.4.8.3,7.71-2.5,10.6-9,12.83-16.32,7.61-25.02,12.38-50.34,14.31-75.97.39-5.18-.55-10.99-5.07-14.14-.29-.2-.64-.26-.98-.18-3.22.82-6.3-.42-9.47-1.07-15.57-4.17-30.69-9.81-45.36-16.91-5.95-2.87-12.27-5.79-16.4-10.59-.33-.38-.83-.57-1.33-.48-4.87.81-8.57,3.39-11.1,7.76-2.75,4.74-5.15,9.65-7.22,14.74-10.55,25.99-17.84,53.02-21.09,80.92-1.06,9.12-.75,17.81,7.38,23.33.14.09.32.05.41-.09.02-.04.04-.08.05-.12.95-7.81,15.16-9.33,20.85-9.63,15.75-.82,30.92,1.73,45.5,7.64ZM351.24,844.39l3.97.63c1.4.22,2.82.07,4.14-.43,4.17-1.59,8.38-2.93,12.61-4.04.97-.25,2.52-.88,4.65-1.89,17.33-8.19,27.18-12.92,29.54-14.17,8.05-4.3,12.4-8.38,20.21-15.58.78-.72,1.63-1.69,2.56-2.9.2-.25.31-.57.3-.89-.02-3.84-1.13-6.99-3.33-9.45-.26-.29-.66-.41-1.03-.31-6.11,1.65-10.28,3.1-12.49,4.33-5.21,2.91-10.63,5.58-16.26,7.99-5.03,2.15-9.45,4.77-13.27,7.86-3.64,2.93-7.86,4.82-11.71,8.62-1.8,1.78-4.27,3.33-6,4.58-.79.57-1.47,1.27-2.03,2.07l-3.26,4.72c-.09.13-.21.24-.35.33l-8.86,5.5c-.77.48-1.01,1.5-.53,2.27.25.41.67.68,1.14.76ZM196.46,796.16c-6.45,5.34-2.16,13.9,3.03,18.04,3.21,2.57,5.31,4.15,6.31,4.74,11.01,6.53,18.82,10.84,23.43,12.95,7.95,3.63,18.54,7.84,31.77,12.62,3.35,1.21,6.51,1.26,9.49.16.66-.24,1-.97.76-1.63-.02-.04-.04-.09-.06-.13-.93-1.87-2.29-3.45-4.06-4.75-2.52-1.85-4.95-3.91-7.29-6.18-2.66-2.57-5.72-4-8.99-6.65-9.43-7.66-19.37-14-29.81-19.03-7.79-3.74-12.93-6.27-15.42-7.6-1.18-.63-3.91-1.54-8.18-2.75-.34-.09-.7-.02-.98.21ZM433.34,806.19c-.15-.28-.49-.38-.77-.24-.11.06-.2.16-.25.28-1.33,3.12-2.35,4.75-4.5,6.83-5.21,5.03-11.54,9.49-18.97,13.4-.82.43-1.59.94-2.31,1.53-1.69,1.39-2.84,2.2-3.43,2.45-7.12,2.92-10.99,4.5-11.61,4.75-1.19.48-2.15,1.32-3.47,1.9-6.88,3.05-12.84,4.73-19.72,8.04-4.29,2.06-8.23,3.26-11.8,3.61-.75.08-1.32.7-1.33,1.45-.09,5.1.98,9.83,4.04,13.55,1.04,1.26,1.57,1.93,1.59,2.02.09.38.4.66.79.71,3.26.36,7.13-.08,10.61-.8.12-.03,2.29-.2,6.52-.52,4.67-.35,9.04-1.26,13.11-2.71,2.73-.97,10.11-3.86,22.13-8.65.61-.25,1.19-.56,1.72-.95,7.02-5.02,12.54-9.45,16.57-13.28,1.61-1.54,3.36-4,5.25-7.37.27-.48.45-1.01.54-1.57.31-2.02.91-5.63.57-8.19-.78-5.71-2.54-11.12-5.28-16.24ZM265.52,849c-12.7-4.15-19.3-5.88-28.61-9.85-11.31-4.83-20.7-9.42-28.19-13.78-5.9-3.43-11.21-8.1-15.93-14-1.42-1.78-2.37-2.75-2.85-2.9-5.96-1.96-6.62,14.8-6.88,18.18-.27,3.56.44,6.41,2.11,8.56,2.62,3.39,8.37,8.65,17.26,15.78.05.05.11.08.17.11l16.83,8.47c.58.29,1.21.49,1.85.59,4.18.65,7.46,1.53,9.85,2.64,3.09,1.44,5.42,2.26,6.99,2.46,3.82.49,6.89.67,9.21.56.56-.03,1.12,0,1.68.06,5.25.63,9.03.98,11.34,1.05,1.85.05,3.01-.53,3.49-1.74,1.17-2.96,1.91-4.76,2.24-5.4.47-.93.72-1.95.71-2.99l-.03-6.1c0-.78-.5-1.46-1.24-1.7ZM278.55,1039.16c1.35-3.33,2.23-7.47,2.65-12.42,1.35-16.16,1.87-32.1,1.56-47.81-.67-33.92-3.92-67.97-9.99-101.67-.9-4.97-2.19-7.86-6.39-10.23-.24-.14-.56-.07-.71.17-.95,1.41-2.39,2.2-4.31,2.37-4.66.42-9.33.39-14.02-.09-20.23-2.67-39.95-10.09-55.93-23.08-4.27-3.46-7.54-7.21-9.81-11.24-1.66-2.92-1.92-4.98-1.81-8.33.01-.31-.23-.57-.54-.58-.05,0-.1,0-.14.01-3.55.77-6.24,2.81-8.07,6.13-2,3.65-4.23,8.41-6.69,14.26-4.2,10.01-7.98,20.22-11.35,30.64-11.28,34.93-20.03,70.27-26.24,106.03-1.33,7.65-2.54,16.19-3.61,25.61-.6,5.28-.67,10.57-.2,15.86.02.21.21.37.42.35.08,0,.15-.04.21-.09l3.69-3.09c.31-.25.54-.59.67-.96,4-11.18,11.25-19.76,21.76-25.74,20.3-11.56,45.82-9.26,65.45,2.43,15.34,9.14,27.39,23.54,35.29,39.19,4.36,8.61,10.91,10.94,20.05,7.98,3.13-1.02,5.81-2.92,8.06-5.7ZM375.74,869.17c-4.96.53-9.58.78-13.86.75-1.92-.01-3.53-.71-4.84-2.09-.36-.37-.92-.45-1.37-.19-2.92,1.69-4.77,4.3-5.55,7.83-.85,3.91-1.54,7.62-2.07,11.13-5.52,36.77-8.29,73.45-8.32,110.05,0,11.84.85,23.28,2.16,35.02.39,3.47,1.36,6.38,2.91,8.73,4.35,3.89,9.37,5.8,15.05,5.74.31,0,.62-.04.92-.12,3.51-.93,6.05-2.81,7.63-5.64,9.99-17.89,19.98-32.31,37.06-42.55,15.44-9.26,32.26-12.14,50.47-8.64,16.44,3.16,33.24,15.4,38.2,31.84.05.16.14.31.26.42l4.1,3.89c.15.14.39.14.54-.01.06-.06.09-.14.1-.23.42-5.08.25-10.64-.5-16.67-4.63-37.11-12.64-73.87-23.27-110.28-5.68-19.46-12.04-37.59-19.08-54.39-1.53-3.65-3.59-7.73-6.2-12.26-1.58-2.75-3.84-4.45-6.77-5.12-.44-.1-.88.18-.98.61,0,.03-.01.05-.01.08l-.57,4.63c-.03.24-.1.48-.23.69-8.34,14.42-23.19,23.34-38.39,29.25-9.17,3.57-18.3,6.08-27.39,7.53ZM88.69,855.73c.7.49,1.67.31,2.16-.39.37-.54.37-1.25-.02-1.79-5.46-7.31-18.14-11.02-26.95-12.5-5.01-.84-8.9-3.15-13.81-3.64-10.38-1.04-19.5.31-29.41,1.3-1.64.16-3.14,1.04-4.08,2.4l-1.14,1.65c-.4.58-.25,1.37.32,1.77.23.16.5.24.78.22,1.33-.06,5.63-.77,12.89-2.12,4.48-.83,9.41-.84,14.79-.02,4.37.66,7.12.78,11.04.6,4.07-.2,8.54.79,11.89,2.02,4.1,1.49,8.98,3.49,14.64,5.98,2.83,1.25,5.22,3.31,6.9,4.52ZM530.9,855.56c2.62-.75,4.77-1.81,6.46-3.19,3.12-2.56,7.62-4.8,10.76-5.43,6.03-1.21,11.31-2.85,17.44-3.54,8.25-.92,15.55-1.24,21.89-.95,2.67.12,4.81.31,6.41.58,4.45.73,7.62.71,11.89,1.95.38.11.77-.11.88-.49.05-.18.03-.37-.06-.53-1.87-3.48-5.77-5.43-10.02-5.46-1.15,0-3.3-.33-6.46-.97-1.53-.31-3.7-.52-6.5-.64-8.99-.37-17.22.58-24.7,2.84-1.85.56-3.25.62-5.82,1.01-.2.03-.39.08-.58.15l-17.01,6.7c-.15.06-.3.13-.43.22-2.86,1.89-7.29,3.82-5.3,7.28.23.4.7.6,1.15.47ZM82.16,855.05c-.19-.35-.51-.66-.98-.93-5.95-3.41-11.85-4.57-19.59-6.15-1.79-.37-4.09-1.03-6.88-1.99-3.41-1.17-7.26-1.35-11.54-.56-.56.11-1.12.15-1.69.14-1.26-.03-3.97-.22-8.13-.59-4.24-.38-8.61.32-13.1,2.09-2.72,1.07-7.03.83-8.63,4.12-3.24,6.67-3.48,11.2-5.14,21.28-.82,5.01-1.1,9.34-.85,12.98.8,11.35,1.22,17.31,1.27,17.88.05.51.47.9.99.91,2.62.03,5.1.68,7.43,1.95.59.33,1.33.15,1.71-.42,1.48-2.2,2.39-5.11,5.91-5.79,3.33-.63,6.16.15,8.49,2.35.34.32.88.3,1.2-.04.06-.06.11-.14.15-.22,1.93-4.06,4.62-6.88,9.49-7.21,3.4-.23,6.93.09,10.58.96,2,.47,3.81,1.49,5.43,3.06.6.57,1.54.56,2.12-.03.06-.06.11-.12.15-.19l6.7-9.67c.34-.49.36-1.13.06-1.64-3.61-6.14-3.52-12.68-1.06-19.56,2.67-7.47,7.88-11.54,15.65-12.23.19-.02.32-.19.3-.38,0-.04-.02-.09-.04-.12ZM540.19,855.59c13.38,3.44,15.13,19.5,10.84,30.49-.5,1.29-.35,2.55.44,3.78,2.35,3.66,4.99,8.53,7.67,9.29.31.09.65.04.92-.14,9.02-6.01,19.81-8,25.74,3.26.43.82,1.44,1.16,2.28.76,2.24-1.06,4.87-3.04,7.54-3.15,3.81-.17,6.39,1.54,7.74,5.11.27.72,1.08,1.09,1.8.82.02,0,.03-.01.05-.02,2.03-.85,4.32-1.18,6.89-.97.37.03.73-.09,1.02-.32.74-.6,1.1-1.55,1.07-2.84-.1-4.31.12-7.89.66-10.74.85-4.51,1.16-8.65.63-12.05-.8-5.07-1.43-9.42-1.89-13.07-.74-5.79-2.29-10.76-4.56-15.43-.43-.89-1.25-1.53-2.21-1.73-2.97-.64-6.5-1.5-10.61-2.59-5.15-1.37-10.4-1.11-17.7-.9-7.53.21-14.73,1.17-21.59,2.86-4.02.99-8.22,3.06-12.48,4.17-1.31.35-2.72.72-4.25,1.11-.64.17-1.01.82-.84,1.46.11.41.43.73.84.84ZM542.73,892.26c.25.28.68.3.97.04.02-.02.04-.03.05-.05,5.83-6.67,7.88-13.99,6.16-21.97-1.7-7.85-5.83-12.75-13.9-13.25-.43-.03-.86.04-1.27.2-2.37.91-4.07,2.08-5.11,3.51-1.93,2.67-3.79,5.01-5.58,7.03-.48.54-.84,1.17-1.04,1.86l-3.42,11.47c-.05.19-.09.37-.1.56l-.04.85c.02.36.34.63.7.6.03,0,.07,0,.1-.01,1.69-.4,3.63-.54,5.84-.41,6.15.35,12.8,5.25,16.64,9.57ZM97.93,882.83c.28.06.55-.12.61-.39.02-.09.01-.18-.01-.27-.57-1.77-.98-3.84-1.22-6.22-.33-3.2-1.09-5.3-2.78-7.89-2.28-3.48-3.93-5.88-4.96-7.21-2.14-2.77-4.96-3.66-8.47-2.67-6.04,1.7-10.24,5.23-12.61,10.58-2.31,5.22-1.77,12.17.97,17,1.52,2.66,3.22,4.22,5.57,6.86.35.4.95.43,1.35.08.03-.03.06-.06.09-.09,1.66-1.93,3.66-3.89,6-5.86,4.47-3.77,9.62-5.08,15.47-3.92ZM538.39,908.11c1.43-2.56,3.54-10.56,1.46-13.9-1.36-2.17-3.27-3.99-5.73-5.44-4.02-2.35-7.17-4.06-11.71-3.65-4.73.42-4.39,2.57-5.43,7.06-1.29,5.61-1.75,11.45-1.37,17.5.26,4.11,1.9,7.14,5.92,8.17,6.24,1.61,11.14.96,14.3-5.08.43-.83,1.29-2.39,2.56-4.66ZM98.08,886.3c-7.35-.9-13.32,1.22-17.9,6.37-1.33,1.5-1.99,3.49-1.97,5.98.03,3.15.27,5.72.73,7.7,1.21,5.19,4.99,11.28,10.23,12.62,1.82.47,4.2.18,7.15-.86,7.7-2.72,7.57-9.54,5.85-16.39-.15-.62-.22-1.26-.21-1.9.13-4.95.96-10.56-3.06-13.22-.24-.16-.52-.27-.82-.3ZM43.76,930.6c6.1-2.88,12.1-4.04,16.24-10.17.2-.29.31-.64.31-1,.01-2.18-.58-4.58-1.79-7.2-.16-.34-.24-.7-.24-1.08,0-3.45.55-8.51-2.21-10.64-4.6-3.55-10.56-5.15-16.04-2.79-6.03,2.59-6.56,7.5-5.13,13.31,1.5,6.11,3.55,12.29,6.16,18.54.43,1.02,1.6,1.49,2.62,1.07.03-.01.05-.02.08-.04ZM576.42,929.94c.34.11.7-.04.88-.35,2.55-4.42,4.06-8.49,4.53-12.21.48-3.84,1.1-5.36,2.12-9.21,1.64-6.14-2.12-9.99-7.89-11.09-6.39-1.22-10.16-.65-14.96,4.19-.28.28-.46.66-.5,1.07-.64,6.37-1.05,9.88-2.76,15.14-.47,1.45-.08,3.04.99,4.12,4.79,4.84,11.32,6.47,17.59,8.34ZM39.36,931.7c-.08-.28-.97-1.89-2.68-4.83-2.73-4.71-3.7-9.46-3.95-14.7-.15-3.05-.3-5.03-.45-5.96-.06-.37-.31-.67-.66-.79l-6.64-2.4c-.07-.02-.15-.03-.23-.03-3.58.19-5.39,2.01-5.44,5.45-.01,1.16.19,3.89.6,8.2.6,6.14,4,12.27,7.33,16.75.35.48.83.85,1.38,1.09,2.05.87,4.73.78,8.06-.29,1.55-.5,2.42-.98,2.62-1.45.14-.33.16-.7.06-1.04ZM591.73,934.35c.85-.35,1.74-1.4,2.67-3.15,2.95-5.53,4.71-9.03,5.28-10.52,1.03-2.72,1.5-6.35,1.41-10.9-.06-2.95-.38-7.2-4.7-6.48-2.83.47-5.52,1.04-8.06,1.71-1.22.32-2.06,1.43-2.07,2.69,0,.39.06,2.28.18,5.68.1,2.86-1.59,7.13-3.51,10.39-1.29,2.18-2.29,4.28-3.01,6.3-.42,1.19.15,2.5,1.3,3.02,2.87,1.27,6.13,1.75,9.8,1.43.25-.03.48-.08.71-.17ZM10.08,906.92c-.51.14-.81.66-.67,1.16,0,.03.02.06.03.1,2.33,6.18,4.9,12.18,7.7,17.99.83,1.72,1.9,3.12,3.23,4.21.25.21.63.18.85-.08.15-.18.18-.42.08-.63-1.91-4.36-3.48-8.78-4.7-13.25-.62-2.29-.58-4.04-.54-6.41,0-.37-.12-.72-.35-1-1.65-1.97-3.53-2.66-5.63-2.09ZM598.51,931.75c-.08.16-.02.35.14.43.11.06.24.05.34-.02,2.33-1.68,3.53-3.99,5.58-7.6.95-1.67,1.7-3.21,2.24-4.61,2-5.16,3.44-8.96,4.33-11.4.22-.61-.09-1.28-.7-1.5-.13-.05-.27-.07-.41-.07-1.09,0-2.54.5-4.35,1.47-.46.25-.77.71-.82,1.23l-.45,4.57c-.02.2-.06.4-.13.59l-3.2,8.87c-.07.19-.11.38-.13.57-.26,2.37-1.07,4.86-2.44,7.47ZM61.82,922.75c-.4.25-1.33.94-1.64,1.52-2.21,4.04-9.82,7.83-14.7,8.59-.73.11-1.23.79-1.11,1.52.01.08.03.15.05.22.25.78.8,1.6,1.63,2.46,5.02,5.19,9.39,9.97,16.26,11.15.48.08.98.06,1.46-.05,3-.73,6.56-1.79,7.88-4.73,2.03-4.54,1.15-8.66-2.65-12.36-2.59-2.53-4.61-5.19-6.04-7.99-.2-.4-.69-.56-1.09-.36-.02,0-.04.02-.05.03ZM574.35,933.63c.31-.66.02-1.45-.65-1.75-.2-.09-.42-.13-.63-.12-2.09.14-4.04-.14-5.85-.85-.06-.03-.12-.06-.18-.09l-6.65-4.06c-.13-.09-.25-.19-.35-.3l-2.54-2.96c-.61-.71-1.67-.79-2.38-.19-.16.14-.29.3-.39.49-1.19,2.24-2.43,4.06-3.74,5.46-2.45,2.6-3.88,4.29-4.31,5.06-3.41,6.15.36,12.32,6.64,14.1,6.08,1.71,10.65-3.9,14.73-8.39.23-.25.48-.46.75-.65,2.81-1.92,4.66-3.84,5.55-5.75ZM559.96,952.2c.7.35,1.51.44,2.28.27,2.48-.56,5.63-1.27,9.46-2.13,3.93-.88,7.19-2.44,9.76-4.69,3-2.64,6.36-4.32,8.61-7.02.38-.45.32-1.12-.13-1.49-.18-.15-.4-.24-.63-.25-2.12-.11-4.42.11-6.64-.59-1.49-.48-2.93-1.18-4.33-2.09-.42-.27-.97-.16-1.24.25,0,0,0,.01,0,.02-1.97,3.16-3.78,5.94-5.45,8.34-1.35,1.94-4.74,5.31-6.57,5.74-3.13.74-5.23,1.28-6.31,1.63-.38.12-.6.53-.47.92.06.19.19.34.37.43l1.3.66ZM31.01,938.79c1.08,2.66,4.12,4.2,6.83,6.2.35.26.72.49,1.11.69,6.23,3.14,10.93,5.35,14.1,6.62,2.2.89,4.58.95,7.14.2.31-.09.5-.41.41-.73-.04-.14-.12-.26-.24-.33l-2.38-1.65c-.27-.18-.55-.32-.85-.43-3.78-1.31-7.26-3.45-10.44-6.42-2.26-2.11-2.64-3.24-4.32-6.11-.37-.62-1.08-.96-1.79-.85l-8.73,1.34c-.59.09-1,.64-.91,1.23.01.08.03.16.07.24ZM277.33,1043.89l-7.33,4.94c-.1.07-.21.13-.33.16-8.86,2.37-14.1-.95-19.93-6.75-.3-.3-.55-.64-.75-1-6.07-11.12-9.19-16.81-9.35-17.07-1.82-2.87-5.06-6.23-9.73-10.07-.26-.21-.5-.45-.71-.71-4.34-5.22-7.82-8.92-13.68-11.77-6.11-2.97-9.51-5.2-14.98-7-3.51-1.15-6.58-2.88-10.47-3.75-.33-.07-.65-.09-.98-.07-4.13.33-7.45.41-9.98.22-4.93-.36-9.02-.26-13.87,1.37-2.05.69-4.35,1.53-6.91,2.52-1.5.58-2.76,1.18-3.78,1.8-3.16,1.9-6.65,2.95-9.22,5.06-3.29,2.69-5.35,4.68-6.18,5.96-1.93,2.99-3.67,5.57-5.21,7.75-.25.37-.19.86.14,1.11.09.07.19.11.3.13.33.06.76-.1,1.27-.48.29-.21,1.25-.92,2.9-2.11,1.1-.8,2.29-1.45,3.56-1.93,7.37-2.78,11.42-4.25,12.16-4.41,3.97-.87,9.57-1.65,16.82-2.32,2.84-.27,6.02-.12,9.54.43,6.7,1.05,11.91,1.47,17.44,4.11,4.4,2.1,9.51,4.74,15.33,7.91,3.09,1.68,5.85,3.68,8.27,5.99,2.67,2.55,5.61,5.71,8.83,9.48,3.25,3.81,5.67,7.33,7.26,10.56,2.16,4.39,4.44,9.58,6.85,15.56.92,2.29,1.51,4.97,1.78,8.04.05.57.55,1,1.12.95.05,0,.09-.01.14-.02,4.32-.97,10.04-2.19,17.15-3.64,5.17-1.05,9.69-3.03,13.56-5.94.24-.18.4-.45.44-.75.71-4.79.59-9.4-.36-13.82-.09-.39-.47-.63-.86-.55-.09.02-.18.06-.25.11ZM345.41,1044.01c-.25-.22-.63-.19-.85.06-.08.1-.13.22-.14.35l-1.15,14.5c-.07.83.4,1.62,1.17,1.96,4.99,2.21,9.93,3.66,14.8,4.34,2.39.33,4.19.66,5.38.99,1.82.49,4.68.59,7.22,1.37,1.05.32,1.65-.12,1.8-1.33.42-3.63,1.38-6.93,2.89-9.88.97-1.9,1.98-3.91,3.04-6.02,1.55-3.12,2.55-6.75,4.47-9.53,1.11-1.62,4.26-5.28,9.43-10.97,2.31-2.54,4.49-5.61,7.46-7.61,5.18-3.5,9.28-6.23,12.29-8.2.56-.37,1.17-.68,1.81-.92,10.38-3.89,16.46-5.98,18.24-6.27,2.59-.41,8.2-.9,16.82-1.45,10.14-.65,18.36,2.47,28.14,6.17,4.17,1.58,6.82,3.52,10.58,6.34.31.23.74.16.97-.14.08-.1.12-.23.13-.36.03-.41-.15-.87-.55-1.38-3.23-4.14-6.44-7.99-9.63-11.54-.36-.4-.78-.74-1.26-1-1.13-.61-2.33-1.48-3.6-2.61-.92-.83-2.07-1.41-3.45-1.73-.32-.07-.61-.21-.87-.41-1.31-.99-3.15-1.92-5.52-2.79-2.81-1.01-6.18-2.37-8.04-3.44-1.99-1.15-5.38-1.77-7.12-1.64-3.63.29-8.46.25-14.48-.1-1.79-.11-3.3.02-4.53.38-9.25,2.73-20.52,5.19-27.28,11.63-2.44,2.34-4.53,3.44-7.77,5.38-.31.18-.57.42-.77.72-1.11,1.63-4.99,6.15-11.63,13.57-2.02,2.25-3.73,4.92-5.14,8-1.14,2.5-2.18,4.45-3.13,5.86-2.95,4.38-6.01,8.92-10.53,11.49-6.97,3.98-13.94.7-19.2-3.79ZM377.56,1068.93c33.2,5.65,66.88,6.78,101.05,3.4,10.43-1.03,20.7-2.82,30.81-5.35,1.15-.29,2.38-.7,3.67-1.23.86-.36,1.37-1.25,1.23-2.17-1.13-7.49-3.74-13.6-7.32-20.89-4.8-9.81-12.72-18.09-21.52-23.57-4.12-2.57-9.33-5.09-15.62-7.57-7.26-2.87-16.21-3.26-23.97-3.28-21.36-.05-41.98,12.1-54.6,28.59-4.79,6.27-8.08,11.56-9.86,15.87-1.99,4.81-3.51,9.89-4.55,15.22-.08.46.21.89.66.98,0,0,.01,0,.02,0ZM211.67,1072.78c1.57.14,3.14.11,4.72-.1,8.79-1.15,17.49-2.31,26.09-3.5.58-.08.99-.61.91-1.19,0-.02,0-.04,0-.06-2.18-11.86-7.11-22.53-14.79-32-5.79-8.3-14.76-14.73-23.79-19.84-3.03-1.71-6.53-3.12-10.51-4.23-6.07-1.69-9.75-2.62-11.03-2.8-3.89-.54-9.6-.66-17.13-.36-9.88.4-17.05,3.6-26.27,8.43-3.43,1.79-6.75,4.07-9.95,6.82-12.25,10.53-19.64,23.98-22.16,40.35-.12.75.31,1.48,1.03,1.75,5.88,2.17,12.4,3.17,20.53,4.59,4.59.79,9.9,1.46,15.95,1.99,22.11,1.94,44.24,1.99,66.41.15ZM516.27,1066.98l-5.72,2.96c-.06.03-.12.05-.19.07-15.01,3.63-30.68,5.84-46.99,6.61-12.8.6-26.96.61-42.49.04-6.37-.24-12.53-.72-18.48-1.43-4.19-.5-8.88-.1-13.3-1.11-2.48-.56-6.34-1.19-11.59-1.88-1.76-.23-3.47-.59-5.13-1.06-4.17-1.18-8.58-1.46-12.86-2.62-6.06-1.65-12.05-3.78-17.96-6.39-.36-.16-.79,0-.95.37-.03.06-.04.12-.05.19-1.1,7.44-1.44,14.45-1.03,21.03.06.86.59,1.62,1.38,1.96,4.92,2.12,9.8,5.16,15.23,6.4,8.32,1.91,19.12,4.2,32.39,6.87,8.2,1.64,15.99,1.98,24.1,2.98,4.87.6,10.93.96,18.18,1.07,15.11.23,26.14.11,33.07-.35,15.93-1.06,30.18-2.57,45.31-6.74,3.08-.85,5.74-1.33,8.48-3.08,1.12-.71,1.79-1.95,1.75-3.28-.03-1.11-.19-2.26-.48-3.47-1.04-4.22-1.25-8.87-.64-13.94.16-1.35-.09-2.92-.75-4.71-.17-.47-.7-.71-1.17-.54-.04.01-.08.03-.11.05ZM281.53,1062.83c-.04-.25-.27-.41-.51-.37-.04,0-.08.02-.11.03-.29.13-5.86,2.04-16.73,5.74-1.41.47-5.02,1.09-10.83,1.86-4.51.6-8.1,1.2-10.76,1.79-2.51.56-6.42,1.33-11.71,2.3-2.08.39-4.1.61-6.05.68-5.88.19-8.52.18-15.23.96-15.88,1.85-32.57,1.44-49.51,1.18-5.4-.08-11.89-.66-19.47-1.73-10.15-1.44-16.61-2.37-19.38-2.79-5.35-.81-10.46-2.48-15.35-5.02-.72-.37-1.6-.09-1.97.62-.09.17-.15.36-.16.56l-1.7,21.39c-.09,1.15.48,2.25,1.48,2.83,1.26.73,2.43,1.28,3.52,1.65,12.8,4.34,26.22,5.87,40.96,7.36,16.88,1.71,34.39,1.57,50.77.99,11.07-.39,26.27-2.68,35.46-3.84,5.85-.74,14.47-2.67,25.88-5.78,3.46-.95,6.36-1.7,8.71-2.26,4.62-1.1,8.99-2.9,13.12-5.4.52-.31.85-.87.87-1.48.21-7.11-.22-14.2-1.3-21.27Z"/>
  <path class="st3" d="M339.47,19.36c-.99,4.18-1.77,8.19-2.36,12.02-.69,4.49-3.18,9.44-7.46,14.86-5.61,7.1-16.03,10.79-24.92,9.72-5-.61-9.59-2.76-16.43-5.36-.8-.31-2.33-.56-4.58-.76-4-7.67-4.7-16.63-1.94-24.83,1.72-5.09,4.7-9.66,8.66-13.29,4.59-4.2,10.32-6.96,16.47-7.94,5.07-.81,10.27-.37,15.14,1.27,7.36,2.48,13.55,7.57,17.42,14.31ZM309.24,15.18c-2.71-3.7-8.14-4.33-12.13-1.41h0c-3.99,2.92-5.04,8.29-2.33,11.99h0c2.71,3.7,8.14,4.33,12.13,1.41h0c3.99-2.92,5.04-8.29,2.33-11.99h0Z"/>
  <ellipse class="st2" cx="302.01" cy="20.47" rx="8.96" ry="8.3" transform="translate(46.21 182.32) rotate(-36.2)"/>
  <path class="st1" d="M283.72,49.84c2.25.2,3.78.45,4.58.76,6.84,2.6,11.43,4.75,16.43,5.36,8.89,1.07,19.31-2.62,24.92-9.72,4.28-5.42,6.77-10.37,7.46-14.86.59-3.83,1.37-7.84,2.36-12.02,1.92,3.35,3.21,7.03,3.82,10.85,1.49,9.5-1.39,19.16-7.85,26.29-6.55,7.23-16.06,11.04-25.79,10.35-5.32-.37-10.46-2.08-14.95-4.97-4.65-2.99-8.43-7.14-10.98-12.04Z"/>
  <path class="st5" d="M305.4,70.19h13.44c.4,0,.72.32.72.72v23.76c0,.4-.32.72-.72.72h-13.44c-.4,0-.72-.32-.72-.72h0v-23.76c0-.4.32-.72.72-.72h0Z"/>
  <path class="st5" d="M302.36,99.64c-1,1.05-1.24,2.2-.73,3.45.12.3.41.5.74.51,3.57.08,7.11-.31,10.6-1.18.32-.08.57-.31.67-.62.35-1.03.19-1.99-.47-2.88,4.35-.43,8.74-.34,13.16.29,3.23.46,5.23,2.23,6.41,5.63.84,2.44,1.87,4.92,3.1,7.44.22.46.02,1.02-.44,1.24-.12.06-.26.09-.39.09-3.02.02-7.41-.69-11.51-.67-3.81.01-10.76-.03-20.86-.13-4.54-.05-7.79.3-12.99.85-.51.05-.96-.32-1.01-.83-.01-.14,0-.28.05-.41.83-2.26,1.48-4.26,1.93-5.99,1.48-5.66,5.85-8.66,11.74-6.79Z"/>
  <path class="st1" d="M313.17,98.92c.66.89.82,1.85.47,2.88-.1.31-.35.54-.67.62-3.49.87-7.03,1.26-10.6,1.18-.33,0-.62-.21-.74-.51-.51-1.25-.27-2.4.73-3.45,3.51-.71,7.12-.95,10.81-.72Z"/>
  <path class="st3" d="M433.18,144.34c-1.94,5.25-4.29,9.03-7.04,11.36-4.45,3.75-10.52,6.99-18.2,9.71-3.93,1.39-8.06,2.62-12.38,3.67-18.99,4.63-38.41,7.38-58.26,8.26-8.03.36-16.31.54-24.84.53-11.05,0-19.32-.23-24.83-.69-14.11-1.17-24.12-1.71-38.78-3.82-4.19-.6-7.45-1.19-9.79-1.76-8.34-2.03-16.62-2.95-24.09-5.85-5.61-2.18-10.52-4.5-14.72-6.97-4.1-2.41-6.08-6.42-8.73-10.39-.09-.14-.15-.3-.18-.46l-.64-3.63c.71-3.47,3.23-6.3,7.56-8.49,4.42-2.25,7.95-3.8,10.59-4.67,16.89-5.56,34.06-9.54,51.53-11.94,23.48-3.23,45.61-3.57,72.75-2.51,26.25,1.02,51.95,5.32,77.1,12.89,2.26.68,7.34,2.77,15.23,6.28,4.46,1.99,7.03,4.81,7.72,8.48Z"/>
  <path class="st4" d="M569.46,401.63c-.55.01-.89.2-1.03.57-.06.16-.23.25-.4.19-.14-.05-.22-.18-.2-.33.26-2.53.72-5.05.65-7.51-.17-6.13-.24-11.01-.2-14.66,0-.06-.05-.11-.11-.11h-.28c-.14,0-.25.11-.27.25-.47,4.69-1.59,8.3-2.62,13.9-3,16.28-6.99,30.42-11.96,42.43-2.49,6.02-6.65,13.88-12.48,23.59-.97,1.62-2.17,3.21-3.6,4.78-3.55,3.87-6.49,7.75-9.99,11.15-17.96,17.42-40.34,28.28-64.36,34.98-32.2,8.99-64.66,13.06-99.49,15.46-19.11,1.32-42.61,1.8-70.48,1.43-31.44-.42-67.19-3.67-100.24-9.62-11.23-2.02-22.77-4.8-34.64-8.34-14.12-4.21-27.92-10.25-41.39-18.11-10.12-5.9-19.83-14.23-29.14-24.99-3.31-3.83-6.18-7.82-8.6-11.97-3.36-5.77-5.73-10.08-7.11-12.93-5.26-10.85-9.27-22.9-12.03-36.15-2.83-13.55-4.58-23.49-5.25-29.82-.03-.3-.11-.6-.24-.87l-1.98-4.25c-.07-14.59.28-29.18,1.05-43.77,1.3-24.4,4.96-48.09,13.26-71.05,13.9-38.48,41.11-70.44,75.93-92.09,14.2-8.82,29.39-16.06,45.56-21.73.1-.04.22.01.26.12.02.04.02.09,0,.13-1.13,3.91-1.09,7.86.14,11.84,5.57,18.1,28.68,24.6,44.87,27.86,27.42,5.52,55.28,6.76,85.19,6.44,26.87-.29,52.41-2.01,77.87-7.73,12.27-2.76,25.39-7.47,33.81-16.96,4.92-5.54,8.13-14.01,5.79-21.31-.05-.16.03-.34.2-.39.07-.02.14-.02.2,0,18.07,6.23,35.02,14.67,50.85,25.3,29.46,19.8,51.35,45.64,65.68,77.52,4.59,10.23,8.25,21.79,10.98,34.68,3.75,17.74,5.86,35.52,6.35,53.34.62,22.93.44,45.84-.55,68.73ZM289.42,223.64c0-3.54-2.87-6.41-6.41-6.41-3.54,0-6.41,2.87-6.41,6.41h0c0,3.54,2.87,6.41,6.41,6.41h0c3.54,0,6.41-2.87,6.41-6.41ZM344.49,218.63c-2.67-2.28-6.73-1.9-9.07.84h0c-2.34,2.74-2.08,6.81.59,9.09t0,0c2.67,2.28,6.73,1.9,9.07-.84,0,0,0,0,0,0,2.34-2.74,2.08-6.81-.59-9.09h0ZM318.04,223.8c0-3.57-2.89-6.46-6.46-6.46-3.57,0-6.46,2.89-6.46,6.46h0c0,3.57,2.89,6.46,6.46,6.46h0c3.57,0,6.46-2.89,6.46-6.46ZM311.13,507.05c31,0,60.98-2.02,89.94-6.05,16.57-2.31,31.5-5.44,44.79-9.41,9.61-2.87,17.74-5.91,24.37-9.14,29.18-14.18,47.46-37.36,54.84-69.54,5.71-24.88,5.61-53.72.54-78.47-6.21-30.27-23.06-56.41-50.58-71.06-13.65-7.26-28.21-11.26-43.66-11.99-11.83-.56-23.51-.26-35.06.9-25.01,2.52-55.58,5.24-85.18,5.24s-60.16-2.72-85.17-5.24c-11.55-1.16-23.23-1.46-35.06-.9-15.45.73-30.01,4.73-43.66,11.99-27.52,14.64-44.37,40.78-50.58,71.05-5.07,24.75-5.17,53.59.54,78.47,7.37,32.18,25.65,55.36,54.83,69.55,6.63,3.23,14.76,6.27,24.37,9.14,13.29,3.97,28.22,7.1,44.79,9.41,28.97,4.03,58.95,6.04,89.94,6.05Z"/>
  <path class="st1" d="M190.7,144.3l.64,3.63c.03.16.09.32.18.46,2.65,3.97,4.63,7.98,8.73,10.39,4.2,2.47,9.11,4.79,14.72,6.97,7.47,2.9,15.75,3.82,24.09,5.85,2.34.57,5.6,1.16,9.79,1.76,14.66,2.11,24.67,2.65,38.78,3.82,5.51.46,13.78.69,24.83.69,8.53,0,16.81-.17,24.84-.53,19.85-.88,39.27-3.63,58.26-8.26,4.32-1.05,8.45-2.28,12.38-3.67,7.68-2.72,13.75-5.96,18.2-9.71,2.75-2.33,5.1-6.11,7.04-11.36l-.16,7.35c0,.21-.04.41-.11.6-4.82,14.25-19.45,20.73-32.98,24.17-19.42,4.94-40.08,7.48-60.8,8.43-23.25,1.07-45.71.77-67.37-.9-19.36-1.48-38.85-4.15-56.73-10.24-6.05-2.06-11.47-5.13-16.26-9.21-6.12-5.22-8.81-11.97-8.07-20.24Z"/>
  <circle class="st3" cx="283.01" cy="223.64" r="6.41"/>
  <ellipse class="st3" cx="340.25" cy="223.6" rx="6.53" ry="6.35" transform="translate(-50.75 337.11) rotate(-49.5)"/>
  <circle class="st3" cx="311.58" cy="223.8" r="6.46"/>
  <path class="st6" d="M311.13,257.53c29.6,0,60.17-2.72,85.18-5.24,11.55-1.16,23.23-1.46,35.06-.9,15.45.73,30.01,4.73,43.66,11.99,27.52,14.65,44.37,40.79,50.58,71.06,5.07,24.75,5.17,53.59-.54,78.47-7.38,32.18-25.66,55.36-54.84,69.54-6.63,3.23-14.76,6.27-24.37,9.14-13.29,3.97-28.22,7.1-44.79,9.41-28.96,4.03-58.94,6.05-89.94,6.05-30.99,0-60.97-2.02-89.94-6.05-16.57-2.31-31.5-5.44-44.79-9.41-9.61-2.87-17.74-5.91-24.37-9.14-29.18-14.19-47.46-37.37-54.83-69.55-5.71-24.88-5.61-53.72-.54-78.47,6.21-30.27,23.06-56.41,50.58-71.05,13.65-7.26,28.21-11.26,43.66-11.99,11.83-.56,23.51-.26,35.06.9,25.01,2.52,55.58,5.24,85.17,5.24ZM135.77,377.3c.14,22,10.24,45.65,29.48,57.77,17.62,11.11,39.52,11.33,57.06-.09,6.39-4.16,11.66-9.25,15.81-15.27,5.27-7.66,8.67-14.59,10.2-20.8,1.91-7.75,3-13.49,3.28-17.22.41-5.45-.13-12.59-1.6-21.44-2.81-16.13-10.27-29.4-22.4-39.81-7.36-6.32-18.64-11-29.01-11.75-10.16-.74-19.68,1.12-28.55,5.59-23.16,11.66-35.06,37.19-34.27,63.02ZM370.74,365.12c-.6,4.15-.86,8.36-.79,12.56.11,5.84.87,11.62,2.26,17.22,2.16,8.68,5.8,16.76,10.7,23.77,6.01,8.59,13.76,15.33,22.56,19.62,10.52,5.13,22.11,6.57,33.35,4.14,8.12-1.75,15.83-5.48,22.63-10.93,6.58-5.27,12.15-12.04,16.38-19.9,4.45-8.26,7.32-17.53,8.4-27.18,1.91-17.1-1.89-34.37-10.62-48.29-4.14-6.59-9.28-12.26-15.18-16.73-12.41-9.4-27.47-12.96-42.12-9.95-3.55.73-7.02,1.84-10.39,3.31-7.16,3.12-13.72,7.84-19.32,13.88-9.45,10.2-15.73,23.74-17.86,38.48ZM311.1,449.12c12.79-.02,24.26-4.27,33.27-13.1,3.11-3.06,5.65-7.83,1.77-11-2.06-1.68-5.13-1.57-6.84.3-7.32,7.98-17.63,11.73-28.21,11.75-10.59,0-20.9-3.72-28.24-11.68-1.72-1.87-4.79-1.98-6.84-.29-3.87,3.18-1.32,7.94,1.79,10.99,9.03,8.81,20.52,13.04,33.3,13.03Z"/>
  <path class="st3" d="M49.42,396.48l-.11,2.68c0,.17-.13.3-.3.32l-1.22.13c-.09.01-.18-.05-.19-.15,0,0,0,0,0,0l-.47-4.48c-.05-.46-.39-.83-.84-.91-3.89-.75-7.75-1.54-11.58-2.36-3.99-.85-8.39-3-12.67-4.38-.69-28.64-.72-48.27-.07-58.9.59-9.47.97-18.22,1.15-26.25.17-7.37,1.05-15.54,8.93-18.32,6.85-2.42,15.64-4.94,23.54-5.56.35-.03.65.23.69.58,0,.05,0,.11,0,.16-.58,3.56-2.11,8.68-2.86,13.37-2.83,17.58-4.33,38.44-4.52,62.58-.15,18.07.03,31.9.53,41.49ZM25.9,338.81l19.31-6.23c.67-.22,1.13-.85,1.13-1.56v-9.31c0-.64-.52-1.16-1.16-1.16-.07,0-.13,0-.2.02-2.75.48-6.17,1.32-10.27,2.51-5.74,1.67-9.3,2.39-9.67,8.52-.13,2.32-.14,4.52-.02,6.6.02.37.34.66.72.64.05,0,.11-.01.16-.03Z"/>
  <path class="st3" d="M600.95,329.73c-.27-1.85-.42-3.7-.45-5.55,0-.04-.03-.08-.05-.1-.01,0-.02,0-.03,0-.01.05-.04.07-.07.08-.04,0-.09.13-.13.3l-.74,3.86c-.07.36-.41.6-.77.53-.18-.03-.34-.14-.44-.3-2.02-3.17-4.84-5.2-8.47-6.08-5.15-1.25-8.98-2.04-11.49-2.36-.57-.07-1.08.34-1.14.91,0,.04,0,.08,0,.12v11.15c0,.84.6,1.56,1.42,1.72,8.79,1.7,14.98,2.46,21.62,5.43.21.09.45,0,.54-.21.01-.02.02-.05.03-.08l.26-1.04.02,47.36c-7.33,7.17-17.59,8.04-27.6,8.23.16-15.61.22-31.23.18-46.86-.01-5.21-.12-9.32-.33-12.33-.34-4.96-.29-9.82-.83-16.45-.83-9.99-2.01-19.8-3.54-29.45-.53-3.35-1.2-6.56-2.03-9.63-.07-.26.09-.52.34-.59.05-.01.11-.02.17-.01,7.52.77,15.1,2.45,22.74,5.02,2.21.74,5.55,2.46,6.93,4.88,1.66,2.95,2.58,5.58,2.77,7.91.71,8.82,1.08,20,1.1,33.53Z"/>
  <path class="st7" d="M18.54,385.21c-3.43-.79-6.14-2.07-8.13-3.83-2.54-2.25-4.71-3.72-6.52-4.4-.27-12.71-.19-22.64.26-29.8.71-11.33,2-21.22,3.88-29.69,1.38-6.24,5.13-10.34,11.24-12.31.22-.07.46.06.52.27.01.04.02.09.02.14-.53,11.41-.91,22.04-1.16,31.91-.33,12.96.12,31.79-.11,47.71Z"/>
  <path class="st7" d="M619.13,377.63c-1.75.81-3.08,1.49-4.6,2.87-3.07,2.79-6.52,4.48-10.36,5.05.12-12.9.24-25.52.35-37.87.05-5.64,0-10.14-.15-13.51-.48-10.43-.38-18.47-.7-28.55,0-.22.16-.41.38-.42.05,0,.11,0,.16.03,8.94,3.13,11.36,10.88,12.42,19.2,2.26,17.69,3.09,35.43,2.5,53.2Z"/>
  <path class="st2" d="M250,360.25c-5.34-1.48-10.05-3.37-14.14-5.67-5.99-16.4-20.46-28.3-38.2-27.52-11.44.51-22.7,7.57-29.02,16.63-6.35,9.11-9.6,19.64-9.77,31.59-5.83,3.28-12.33,5.87-19.51,7.76-.59.16-1.2-.19-1.36-.78,0-.03-.01-.05-.02-.08l-1.78-8.95s-.03-.06-.07-.07h-.01c-.12,0-.23.1-.23.23l-.12,3.91c-.79-25.83,11.11-51.36,34.27-63.02,8.87-4.47,18.39-6.33,28.55-5.59,10.37.75,21.65,5.43,29.01,11.75,12.13,10.41,19.59,23.68,22.4,39.81Z"/>
  <path class="st2" d="M486.23,384.42c-5.64-1.14-12.3-1.76-17.03-5.32-2.15-1.61-3.72-4.14-5.35-6.4-.68-16.41-7.98-31.87-22.24-40.75-4.33-2.7-9.33-4.26-14.98-4.69-28.46-2.13-44.58,25.09-43.46,50.36l-9.39-.55c-.29-.02-.53-.23-.59-.51l-2.45-11.44c2.13-14.74,8.41-28.28,17.86-38.48,5.6-6.04,12.16-10.76,19.32-13.88,3.37-1.47,6.84-2.58,10.39-3.31,14.65-3.01,29.71.55,42.12,9.95,5.9,4.47,11.04,10.14,15.18,16.73,8.73,13.92,12.53,31.19,10.62,48.29Z"/>
  <path class="st2" d="M600.95,329.73l.08,8.39-.26,1.04c-.05.23-.28.37-.5.31-.03,0-.05-.01-.07-.02-6.64-2.97-12.83-3.73-21.62-5.43-.82-.16-1.42-.88-1.42-1.72v-11.15c0-.57.47-1.04,1.03-1.04.04,0,.08,0,.12,0,2.51.32,6.34,1.11,11.49,2.36,3.63.88,6.45,2.91,8.47,6.08.19.31.6.4.91.21.16-.1.27-.26.3-.44l.74-3.86c.04-.17.09-.29.13-.3.03,0,.06-.03.07-.08.02-.02.04,0,.06.03,0,.02.02.04.02.06.03,1.85.18,3.7.45,5.55Z"/>
  <path class="st2" d="M25.9,338.81c-.36.11-.74-.09-.85-.45-.02-.05-.03-.11-.03-.16-.12-2.08-.11-4.28.02-6.6.37-6.13,3.93-6.85,9.67-8.52,4.1-1.19,7.52-2.03,10.27-2.51.63-.11,1.23.31,1.34.94.01.07.02.13.02.2v9.31c0,.71-.46,1.34-1.13,1.56l-19.31,6.23Z"/>
  <path class="st6" d="M235.86,354.58c5.22,13.64,5.11,27.5-.32,41.57-3.93,10.2-10.82,17.97-20.66,23.3-8.5,4.61-21.06,5.21-29.82,1.04-17.52-8.33-26.32-26.17-26.19-45.21.17-11.95,3.42-22.48,9.77-31.59,6.32-9.06,17.58-16.12,29.02-16.63,17.74-.78,32.21,11.12,38.2,27.52ZM195.79,331.48c-9.97.38-17.74,8.88-17.35,18.98h0c.39,10.1,8.79,17.98,18.76,17.59s17.74-8.88,17.35-18.98h0c-.39-10.1-8.79-17.98-18.76-17.59Z"/>
  <path class="st6" d="M463.85,372.7c.78,18.51-6.47,35.45-21.93,45.55-10.38,6.79-26.16,6.5-36.69-.06-14.13-8.8-21.37-24.14-22.06-40.57-1.12-25.27,15-52.49,43.46-50.36,5.65.43,10.65,1.99,14.98,4.69,14.26,8.88,21.56,24.34,22.24,40.75ZM422.13,331.68c-9.86-1.4-19.01,5.56-20.44,15.56-1.42,10,5.42,19.24,15.28,20.64s19.01-5.56,20.44-15.56-5.42-19.24-15.28-20.64Z"/>
  <ellipse class="st4" cx="196.49" cy="349.77" rx="18.07" ry="18.3" transform="translate(-13.28 7.8) rotate(-2.2)"/>
  <ellipse class="st4" cx="419.55" cy="349.78" rx="18.28" ry="18.04" transform="translate(14.15 715.86) rotate(-81.9)"/>
  <path class="st7" d="M250,360.25c1.47,8.85,2.01,15.99,1.6,21.44-.28,3.73-1.37,9.47-3.28,17.22-1.53,6.21-4.93,13.14-10.2,20.8-4.15,6.02-9.42,11.11-15.81,15.27-17.54,11.42-39.44,11.2-57.06.09-19.24-12.12-29.34-35.77-29.48-57.77l.12-3.91c0-.13.11-.23.23-.24h.01s.06.04.07.08l1.78,8.95c.12.6.7,1,1.3.88.03,0,.05-.01.08-.02,7.18-1.89,13.68-4.48,19.51-7.76-.13,19.04,8.67,36.88,26.19,45.21,8.76,4.17,21.32,3.57,29.82-1.04,9.84-5.33,16.73-13.1,20.66-23.3,5.43-14.07,5.54-27.93.32-41.57,4.09,2.3,8.8,4.19,14.14,5.67Z"/>
  <path class="st7" d="M383.17,377.62c.69,16.43,7.93,31.77,22.06,40.57,10.53,6.56,26.31,6.85,36.69.06,15.46-10.1,22.71-27.04,21.93-45.55,1.63,2.26,3.2,4.79,5.35,6.4,4.73,3.56,11.39,4.18,17.03,5.32-1.08,9.65-3.95,18.92-8.4,27.18-4.23,7.86-9.8,14.63-16.38,19.9-6.8,5.45-14.51,9.18-22.63,10.93-11.24,2.43-22.83.99-33.35-4.14-8.8-4.29-16.55-11.03-22.56-19.62-4.9-7.01-8.54-15.09-10.7-23.77-1.39-5.6-2.15-11.38-2.26-17.22-.07-4.2.19-8.41.79-12.56l2.45,11.44c.06.28.3.49.59.51l9.39.55Z"/>
  <path class="st8" d="M569.46,401.63c-.63,13.15-2.12,26.18-4.48,39.09-4.48,24.55-18.55,46.89-37.41,62.64-9.89,8.26-21.26,14.96-34.11,20.1-15.39,6.15-32.43,10.95-51.11,14.41-20.65,3.83-42.35,6.47-65.1,7.93-44.37,2.85-89.07,2.77-134.11-.25-6.51-.44-11.39-.86-14.62-1.25-6.43-.79-12.35-1.09-19.49-2.02-14.33-1.87-29.19-4.53-44.56-7.97-16.68-3.73-32.18-9.18-46.51-16.34-30.75-15.37-50.51-39.6-59.29-72.7-1.84-6.94-3.29-16.04-4.36-27.3-1.49-15.71-2.25-31.46-2.29-47.27l1.98,4.25c.13.27.21.57.24.87.67,6.33,2.42,16.27,5.25,29.82,2.76,13.25,6.77,25.3,12.03,36.15,1.38,2.85,3.75,7.16,7.11,12.93,2.42,4.15,5.29,8.14,8.6,11.97,9.31,10.76,19.02,19.09,29.14,24.99,13.47,7.86,27.27,13.9,41.39,18.11,11.87,3.54,23.41,6.32,34.64,8.34,33.05,5.95,68.8,9.2,100.24,9.62,27.87.37,51.37-.11,70.48-1.43,34.83-2.4,67.29-6.47,99.49-15.46,24.02-6.7,46.4-17.56,64.36-34.98,3.5-3.4,6.44-7.28,9.99-11.15,1.43-1.57,2.63-3.16,3.6-4.78,5.83-9.71,9.99-17.57,12.48-23.59,4.97-12.01,8.96-26.15,11.96-42.43,1.03-5.6,2.15-9.21,2.62-13.9.02-.14.13-.25.27-.25h.28c.06,0,.11.05.11.11h0c-.04,3.65.03,8.53.2,14.66.07,2.46-.39,4.98-.65,7.51-.02.17.1.32.27.34.14.02.28-.07.33-.2.14-.37.48-.56,1.03-.57Z"/>
  <path class="st2" d="M18.54,385.21l1.7,45.85c0,.24-.18.45-.43.45-.05,0-.1,0-.15-.02-7.11-2.49-11.24-7.8-12.38-15.95-1.39-9.99-2.44-19.36-3.13-28.11-.27-3.36-.35-6.84-.26-10.45,1.81.68,3.98,2.15,6.52,4.4,1.99,1.76,4.7,3.04,8.13,3.83Z"/>
  <path class="st2" d="M619.13,377.63c-.11,11.5-1.08,22.91-2.91,34.22-.78,4.84-1.27,9.18-3.92,13.03-2.13,3.11-5.09,5.25-8.87,6.41-.2.06-.41-.06-.47-.26-.01-.04-.02-.08-.02-.12l1.23-45.36c3.84-.57,7.29-2.26,10.36-5.05,1.52-1.38,2.85-2.06,4.6-2.87Z"/>
  <path class="st1" d="M601.05,385.48c-.27,20.79-.61,34.11-1,39.95-.65,9.83-1.04,15.16-1.15,16-.88,6.58-5.07,9.67-11.08,11.68-5.21,1.75-10.4,3.13-15.55,4.15-2.57.51-5.03.7-7.36.57-.52-.03-.91-.48-.88-.99,0-.08.02-.15.04-.22,1.45-4.6,2.7-8.89,3.75-12.87,1.66-6.26,1.84-13.02,3.03-19.81.41-2.34.71-5,.9-7.97.47-7.42,1.03-14.84,1.7-22.26,10.01-.19,20.27-1.06,27.6-8.23Z"/>
  <path class="st1" d="M49.42,396.48c.47,11.87,1.56,23.68,3.27,35.43.86,5.97,1.65,10.12,2.37,12.45.63,2.06,1.79,6.14,3.5,12.24.1.39-.13.79-.51.89-.04,0-.07.02-.11.02-2.07.23-4.32.08-6.75-.45-5.46-1.21-9.88-2.28-13.25-3.2-2.02-.55-4.06-1.58-5.91-2.34-6.22-2.54-7.9-8.8-8.34-14.85-.38-5.32-.62-10.76-.73-16.32-.17-8.98-1.38-21.93-.92-33.02,4.28,1.38,8.68,3.53,12.67,4.38,3.83.82,7.69,1.61,11.58,2.36.45.08.79.45.84.91l.47,4.48c.01.09.09.16.19.15,0,0,0,0,0,0l1.22-.13c.17-.02.3-.15.3-.32l.11-2.68Z"/>
  <path class="st7" d="M311.09,437.07c10.58-.02,20.89-3.77,28.21-11.75,1.71-1.87,4.78-1.98,6.84-.3,3.88,3.17,1.34,7.94-1.77,11-9.01,8.83-20.48,13.08-33.27,13.1-12.78.01-24.27-4.22-33.3-13.03-3.11-3.05-5.66-7.81-1.79-10.99,2.05-1.69,5.12-1.58,6.84.29,7.34,7.96,17.65,11.69,28.24,11.68Z"/>
  <path class="st6" d="M385.76,550.37c-.69,2.12-.88,4.6-.58,7.45.26,2.57-5.03,5.83-6.87,6.54-2.46.95-6.16,2.5-11.09,4.64-1.27.55-2.61.93-3.98,1.14-11.58,1.71-19.1,2.27-29.47,3.63-3.89.51-7.52.75-10.89.74-11.31-.05-19.81-.08-25.52-.09-5.15-.01-10.34-.44-15.57-1.28-6.21-.99-12.52-1.94-18.95-2.84-5.02-.7-8.82-1.59-11.4-2.68-3.7-1.56-7.23-3.29-10.58-5.18-.3-.17-.56-.41-.76-.69-2.89-4.07-2.59-7.69-2.79-12.61-.03-.81.6-1.5,1.41-1.54,4.72-.27,9.31.92,13.47,1.23,14.84,1.09,24.03,1.65,27.58,1.67,7.03.05,11.91.11,14.66.2,6.91.23,11.79.27,14.62.12,7.26-.38,13.61-.04,20.61-.44,11.97-.7,22.13-.08,32.8-1.34,3.21-.37,8.92-.72,17.14-1.05,1.93-.08,3.89.47,5.87,1.64.26.15.38.46.29.74Z"/>
  <path class="st8" d="M287.7,576.76l-5.51,1.19c-.08.02-.16.03-.24.03-2.55.07-5.13.41-7.74,1-1.05.23-3.73.06-8.03-.51-1.03-.13-2.07-.18-3.11-.15-4.46.17-8.66-.08-12.6-.74-1.33-.22-2.88-.31-4.65-.27-4.46.1-6.71.31-11.65-.24-3.27-.37-6.15-.52-8.64-.46-4.37.1-7.95-.53-13.07-.74-7.68-.33-15.47-1.92-22.36-2.64-3.6-.37-7.25-1.72-10.92-2.77,4.37-7.59,11.63-9.51,20.34-11.85,11.85-3.19,23.79-5.42,35.8-6.67.36-.04.69.22.73.58.01.13,0,.26-.07.38-4.81,9.35,6.45,15.42,13.81,17.48,12.35,3.47,24.98,5.59,37.91,6.38Z"/>
  <path class="st8" d="M442.3,569.33c-2.45,1.86-4.4,2.99-5.85,3.38-2.89.78-6.5,1.18-10.82,1.19-.87,0-1.73.08-2.58.22-9.11,1.48-17.9,2.34-26.39,2.58-2.22.07-5.4.32-9.54.75-6.05.63-11.83.14-17.89.66-3.46.3-6.24.38-8.34.23-.69-.05-5.95-.04-15.78.05-.07,0-.13-.04-.15-.11l-.08-.26c-.07-.19.04-.41.23-.47.02,0,.04-.01.06-.02,9.53-1.61,18.22-3.53,26.09-5.78,4.53-1.29,9.08-3.5,13.63-6.63.25-.17.34-.49.22-.76l-.31-.72c3.41-3.1,4.32-6.69,2.73-10.77-.13-.32.03-.69.35-.82.09-.04.2-.05.3-.04,9.73.93,19.17,2.52,28.33,4.75,8,1.95,11.99,2.77,18.19,5.86,3.33,1.67,5.87,3.9,7.6,6.71Z"/>
  <path class="st4" d="M384.8,563.64l.31.72c.12.27.03.59-.22.76-4.55,3.13-9.1,5.34-13.63,6.63-7.87,2.25-16.56,4.17-26.09,5.78-.21.04-.34.23-.3.44,0,.02,0,.04.01.05l.08.26c.02.07.08.11.15.11,9.83-.09,15.09-.1,15.78-.05,2.1.15,4.88.07,8.34-.23,6.06-.52,11.84-.03,17.89-.66,4.14-.43,7.32-.68,9.54-.75,8.49-.24,17.28-1.1,26.39-2.58.85-.14,1.71-.21,2.58-.22,4.32-.01,7.93-.41,10.82-1.19,1.45-.39,3.4-1.52,5.85-3.38,8.06,25.17,12.69,51.06,13.89,77.67-.44,1.96-.58,4-.41,6.11.03.4,0,.81-.1,1.2-.5,1.96-1.1,3.39-1.29,5.71-.35,4.48-.68,8.64-.99,12.47-.47,5.74-1.78,10.45-2.32,15.58-.37,3.59-.98,7.48-1.82,11.67-2.82,14.05-6.35,29.3-12.23,42.49-3.57,8.01-6.12,13.24-7.66,15.69-5.29,8.41-10.41,14.71-15.36,18.89-6.41,5.41-12.58,9.89-18.51,13.44-13.99,8.38-28.86,15.02-44.62,19.93-11.96,3.72-25.12,5.61-39.48,5.66-17.78.07-35.11-2.15-51.43-7.99-9.17-3.29-17.44-6.52-25.35-10.74-6.95-3.72-11.74-6.4-14.38-8.05-10.82-6.77-21.34-16.55-28.17-27.74-3.11-5.08-5.22-8.82-6.34-11.22-6.11-13.13-10.91-27.93-14.4-44.41-.64-3.01-1.1-5.1-1.38-6.27-1.68-7.09-1.99-14.29-3.12-21.64-.05-.32-.13-.63-.25-.94-1.14-2.93-1.97-5.91-2.5-8.96-.07-.39-.07-.29,0,.3.05.45-.02.8-.2,1.07-.12-26.16,2.72-51.93,8.52-77.32,1.69-7.39,3.95-14.55,6.78-21.47,3.67,1.05,7.32,2.4,10.92,2.77,6.89.72,14.68,2.31,22.36,2.64,5.12.21,8.7.84,13.07.74,2.49-.06,5.37.09,8.64.46,4.94.55,7.19.34,11.65.24,1.77-.04,3.32.05,4.65.27,3.94.66,8.14.91,12.6.74,1.04-.03,2.08.02,3.11.15,4.3.57,6.98.74,8.03.51,2.61-.59,5.19-.93,7.74-1,.08,0,.16-.01.24-.03l5.51-1.19c23.74,1.8,51.26,1.11,76.22-4.33,7.71-1.67,15.02-3.76,20.88-8.79ZM309.91,759.87c17.71.03,36.22-.84,54.21-3.63,13.53-2.1,28.66-7.17,36.54-18.55,4.6-6.65,7.96-14.23,10.08-22.74,4.91-19.7,6.84-40.21,5.8-61.52-1.29-26.4-10.64-46.56-38.62-51.59-6.75-1.21-14.01-2.06-21.77-2.56-13.01-.84-28.34-1.27-46.01-1.29-17.67-.03-33.01.36-46.02,1.16-7.76.47-15.02,1.31-21.78,2.5-27.99,4.95-37.4,25.08-38.76,51.47-1.11,21.31.77,41.83,5.62,61.54,2.09,8.52,5.43,16.11,10.01,22.77,7.85,11.4,22.97,16.52,36.49,18.65,17.98,2.85,36.49,3.77,54.21,3.79ZM343.17,786.34c0-3.97-3.21-7.18-7.18-7.18h-50.74c-3.97,0-7.18,3.21-7.18,7.18v.38c0,3.97,3.21,7.18,7.18,7.18h50.74c3.97,0,7.18-3.21,7.18-7.18v-.38Z"/>
  <path class="st5" d="M166.75,569.33c.42.02.74.38.72.8-.01.19-.09.37-.23.5-5.51,5.38-7.57,11.33-10.21,18.76-2.41,6.73-3.72,17.1-4.06,22.77-.32,5.25-.58,8.96-.77,11.14-.33,3.71-.41,6.68-.26,8.92.36,5.35.34,9.97,1.34,14.75,1.22,5.89,5.24,10.94,5.94,17.12.07.58-.31,1.12-.88,1.25-3.39.76-6.44-.08-9.15-2.52-2.79-2.51-5.25-4.69-7.38-6.54-3.61-3.12-6.19-7.11-9.21-10.22-2.04-2.11-4.17-4.93-6.38-8.46-5.23-8.35-9.7-17.82-12.05-27.66-.12-.49-.13-1.01-.02-1.5.3-1.38.48-2.74.54-4.07.31-7.43,2.09-13.43,5.34-17.99,1.69-2.38,4.55-4.7,8.57-6.96,7.27-4.09,11.31-6.38,12.14-6.87.36-.21.75-.35,1.15-.42,9.09-1.65,16.6-3.26,24.86-2.8Z"/>
  <path class="st5" d="M458.38,573.49l-1.78-2.22c-.18-.23-.14-.55.09-.73.08-.06.17-.1.27-.11l8.79-.73c1.08-.09,2.17-.09,3.25,0,.97.13,2.9.33,5.79.6,2,.19,4.38.97,7.15,2.35,4.98,2.49,9.29,4.92,12.93,7.3,5.79,3.79,11.63,10.8,12.21,18.03.71,8.97-.58,16.73-3.89,23.28-2.86,5.65-3.52,11.31-8.06,16-.3.31-.56.66-.79,1.03-3.82,6.4-5.29,9.71-10.43,12.9-.71.44-1.32,1.02-1.8,1.71l-1.74,2.52c-.6.86-1.33,1.61-2.18,2.22-3.54,2.55-6.63,4.9-9.27,7.05-.87.71-2.57,1.26-5.1,1.66-.35.06-.7-.04-.97-.27-.67-.57-1.05-1.36-1.13-2.37-.01-.2.02-.41.09-.6.81-2.1,2.41-6.08,4.8-11.94,2-4.93,1.96-12.72,2.4-16.84.27-2.59.33-5.29.18-8.11-.48-8.44-.87-13.61-1.18-15.51-.91-5.59-1.52-10.51-1.83-14.77-.11-1.54-.53-3.04-1.22-4.43-2.25-4.49-4.39-10.37-6.4-17.66-.04-.13-.1-.25-.18-.36Z"/>
  <path class="st5" d="M446.26,571.53c0-.67.53-1.23,1.21-1.23.23,0,.46.06.65.18,6.58,4.03,10.68,11.02,12.65,18.87.63,2.55,2.11,10.16,4.44,22.83,1.66,9.01.85,20.08-.99,29.64-.77,4.03-1.36,7.91-1.77,11.65-.31,2.78-1.3,5.5-2.34,8.36-.08.24-.35.36-.59.27-.17-.07-.3-.23-.31-.41-.17-3.14-.06-6.57.35-10.28.51-4.63-.64-8.68-.83-13.47-.15-3.83-1.34-6.85-1.59-10.83-.66-10.41-1.24-16.57-1.75-18.46-.89-3.31-1.54-6.31-1.95-9.02-.95-6.27-2.56-12.46-3.93-18.59-.72-3.23-1.85-5.75-3.06-8.63-.12-.28-.18-.57-.19-.88Z"/>
  <path class="st5" d="M172.63,575.48c-.32,1.51-.23,3.79-.71,5.58-1.15,4.34-2.84,10.94-5.05,19.81-.81,3.22-1.37,6.14-1.68,8.76-1.54,13.08-4.11,28.68-4.29,43.48-.01,1.39-.15,2.58-.42,3.57-.06.25-.31.4-.56.33-.18-.05-.32-.2-.35-.38-.93-5.75-1.74-10.34-2.41-13.77-1.06-5.43-1.59-9.6-1.6-12.5-.02-5.06-.8-11.08-.18-16.84,1.41-13.13,4.98-25.3,10.69-36.5,1.55-3.05,4.04-4.58,7.46-4.61.38,0,.69.3.69.68,0,.01,0,.02,0,.03-.02.48-.39,1-1.1,1.57-.25.2-.42.48-.49.79Z"/>
  <path class="st6" d="M310.14,597.99c17.67.02,33,.45,46.01,1.29,7.76.5,15.02,1.35,21.77,2.56,27.98,5.03,37.33,25.19,38.62,51.59,1.04,21.31-.89,41.82-5.8,61.52-2.12,8.51-5.48,16.09-10.08,22.74-7.88,11.38-23.01,16.45-36.54,18.55-17.99,2.79-36.5,3.66-54.21,3.63-17.72-.02-36.23-.94-54.21-3.79-13.52-2.13-28.64-7.25-36.49-18.65-4.58-6.66-7.92-14.25-10.01-22.77-4.85-19.71-6.73-40.23-5.62-61.54,1.36-26.39,10.77-46.52,38.76-51.47,6.76-1.19,14.02-2.03,21.78-2.5,13.01-.8,28.35-1.19,46.02-1.16ZM346.32,709.45c-.35-.41-.34-1.02.01-1.42,7.02-8.1,10.76-17.57,11.22-28.42.47-10.9-2.23-22.3-9.14-30.96-3.45-4.33-6.6-7.68-9.44-10.05-7.34-6.12-15.8-8.34-25.58-9.73-7.76-1.1-17.97.53-24.47,3.86-7.33,3.75-14.13,8.2-19.14,15.1-9.21,12.69-12.25,26.38-9.1,41.05,2.07,9.65,6.73,18.04,14,25.16,6.3,6.17,17.7,11.08,25.93,12.17,10.45,1.39,20.24-.28,29.38-5.01.47-.24,1.03-.14,1.39.25,1.91,2.1,4.08,4.41,6.51,6.93,1.36,1.41,2.85,1.52,4.46.35,3.98-2.9,7.63-5.9,10.96-9.01.51-.47.55-1.26.11-1.79l-7.1-8.48Z"/>
  <path class="st4" d="M153.1,673.29c-2.89-3.38-6.32-6.23-10.3-8.56-.93-.55-2.02-.95-3.28-1.22-.27-.05-.52.12-.58.39,0,0,0,0,0,0-.81,4.9-1.62,8.19-2.45,9.86-2.37,4.8-4.99,10.28-7.86,16.44-3.9,8.35-8.19,15.18-13.01,22.46-2.42,3.67-8.42,4.79-12.51,5.41-9.13-4.21-18.25-8.38-27.36-12.49-5.83-2.63-11.81-5.04-17.96-7.23-.23-.08-.46-.13-.71-.15l-2.28-.18c-.31-.03-.59-.19-.76-.45-2.02-3.07-2.31-7.01-.86-11.84,1.77-5.93,3.53-10.83,5.28-14.7,8.42-18.69,18.57-35.79,30.46-51.31,6.26-8.17,13.35-16.42,22.07-21.21.16-.09.36-.03.45.13.03.06.05.13.04.19-1.39,13.77,4.24,27.71,12.03,40.2,7.47,11.99,17.33,23.21,29.79,29.89.37.2.61.57.65.98.1,1.17-.18,2.29-.85,3.38Z"/>
  <path class="st4" d="M515.53,719.45c-5.43-1.9-9.21-4.42-11.34-7.56-1.83-2.69-4.52-7.42-8.09-14.17-5.39-10.21-10.52-21.85-14.78-31.26-.19-.43-.43-1.21-.7-2.34-.06-.25-.31-.4-.55-.34-.03,0-.06.02-.08.03-3.14,1.49-6.17,3.53-9.09,6.13-.26.24-.4.59-.36.94.43,3.52,1.74,7.66,3.93,12.43,5.73,12.42,10.49,22.47,14.26,30.15,1.25,2.56,2.39,5.11,3.41,7.66-1.18-1.59-2.01-2.84-2.48-3.73-8.08-15.25-15.38-31-21.89-47.26-.14-.36,0-.76.34-.95,5.62-3.14,10.65-6.95,15.09-11.43,15.65-15.77,27.62-36.86,27.67-59.16,0-.11.08-.19.19-.19.03,0,.07,0,.1.02,8.68,4.44,15.27,12.25,21.56,20.42,14.35,18.59,25.81,38.97,34.37,61.13,2.27,5.89,4.09,11.68,1.3,17.49-.17.36-.54.58-.94.57-2.14-.07-4.82.57-8.05,1.92-16.45,6.91-31.08,13.41-43.87,19.5Z"/>
  <path class="st3" d="M346.32,709.45l7.1,8.48c.44.53.4,1.32-.11,1.79-3.33,3.11-6.98,6.11-10.96,9.01-1.61,1.17-3.1,1.06-4.46-.35-2.43-2.52-4.6-4.83-6.51-6.93-.36-.39-.92-.49-1.39-.25-9.14,4.73-18.93,6.4-29.38,5.01-8.23-1.09-19.63-6-25.93-12.17-7.27-7.12-11.93-15.51-14-25.16-3.15-14.67-.11-28.36,9.1-41.05,5.01-6.9,11.81-11.35,19.14-15.1,6.5-3.33,16.71-4.96,24.47-3.86,9.78,1.39,18.24,3.61,25.58,9.73,2.84,2.37,5.99,5.72,9.44,10.05,6.91,8.66,9.61,20.06,9.14,30.96-.46,10.85-4.2,20.32-11.22,28.42-.35.4-.36,1.01-.01,1.42ZM305.39,691.23l12.07-10.1c.51-.42,1.26-.39,1.73.08l11.24,11.24c.21.22.56.22.78,0,.02-.02.05-.05.07-.08,2.98-4.44,4.45-9.23,4.41-14.38-.11-13.86-6.46-22.95-19.05-27.28-2.39-.82-4.74-1.22-7.06-1.19-11.99.12-20.61,5.63-25.87,16.52-1.11,2.31-1.77,4.87-1.98,7.7-.86,12.04,2.08,22.45,13.21,28.69,6.41,3.61,13.26,4.41,20.53,2.42.36-.1.57-.46.47-.82-.03-.11-.09-.22-.17-.3l-10.47-10.47c-.54-.54-.54-1.41,0-1.95.03-.03.06-.05.09-.08Z"/>
  <path class="st8" d="M163.88,669.25c.18-.27.25-.62.2-1.07-.07-.59-.07-.69,0-.3.53,3.05,1.36,6.03,2.5,8.96.12.31.2.62.25.94,1.13,7.35,1.44,14.55,3.12,21.64.28,1.17.74,3.26,1.38,6.27,3.49,16.48,8.29,31.28,14.4,44.41,1.12,2.4,3.23,6.14,6.34,11.22,6.83,11.19,17.35,20.97,28.17,27.74,2.64,1.65,7.43,4.33,14.38,8.05,7.91,4.22,16.18,7.45,25.35,10.74,16.32,5.84,33.65,8.06,51.43,7.99,14.36-.05,27.52-1.94,39.48-5.66,15.76-4.91,30.63-11.55,44.62-19.93,5.93-3.55,12.1-8.03,18.51-13.44,4.95-4.18,10.07-10.48,15.36-18.89,1.54-2.45,4.09-7.68,7.66-15.69,5.88-13.19,9.41-28.44,12.23-42.49.84-4.19,1.45-8.08,1.82-11.67.54-5.13,1.85-9.84,2.32-15.58.31-3.83.64-7.99.99-12.47.19-2.32.79-3.75,1.29-5.71.1-.39.13-.8.1-1.2-.17-2.11-.03-4.15.41-6.11.83,9.59,1.19,19.24,1.07,28.93-.29,23.4-2.68,46.4-7.15,68.99-1.55,7.85-4.17,16.59-7.86,26.22-2.93,7.64-7.54,15.69-14.13,20.77-.39.3-.85.51-1.33.6-2.45.47-4.95,1.16-7.5,2.05-27.55,9.7-51.17,25.18-70.85,46.43-.59.65-1.37,1.1-2.22,1.31-3.02.75-5.79,1.31-8.3,1.68-20.47,3-40.55,2.56-60.24-1.31-.76-.15-1.71-.51-2.84-1.08-.36-.19-.69-.42-.98-.69-7.69-7.1-12.87-11.74-15.53-13.92-14.52-11.87-30.19-21.44-47.02-28.69-4.67-2.01-9.04-3.59-13.11-4.74-2.81-.79-4.83-1.66-6.05-2.59-4.87-3.74-8.11-8.88-10.7-14.33-4.6-9.68-8.13-20.5-10.58-32.45-4.95-24.17-6.78-48.29-6.99-74.93Z"/>
  <path class="st6" d="M305.39,691.23c-.58.49-.66,1.36-.17,1.94.02.03.05.06.08.09l10.47,10.47c.26.26.26.69,0,.95-.08.08-.19.14-.3.17-7.27,1.99-14.12,1.19-20.53-2.42-11.13-6.24-14.07-16.65-13.21-28.69.21-2.83.87-5.39,1.98-7.7,5.26-10.89,13.88-16.4,25.87-16.52,2.32-.03,4.67.37,7.06,1.19,12.59,4.33,18.94,13.42,19.05,27.28.04,5.15-1.43,9.94-4.41,14.38-.18.25-.52.32-.77.15-.03-.02-.05-.04-.08-.07l-11.24-11.24c-.47-.47-1.22-.5-1.73-.08l-12.07,10.1Z"/>
  <path class="st8" d="M153.1,673.29c-.84,2.43-1.75,4.72-2.73,6.89-5.21,11.55-9.81,21.37-13.79,29.46-2.41,4.9-4.91,9.06-7.49,12.48-1.83,2.43-4.27,3.97-7.32,4.63-.38.08-.77.04-1.12-.13l-17.54-8.54c4.09-.62,10.09-1.74,12.51-5.41,4.82-7.28,9.11-14.11,13.01-22.46,2.87-6.16,5.49-11.64,7.86-16.44.83-1.67,1.64-4.96,2.45-9.86.05-.27.31-.45.57-.4,0,0,0,0,0,0,1.26.27,2.35.67,3.28,1.22,3.98,2.33,7.41,5.18,10.3,8.56Z"/>
  <path class="st8" d="M515.53,719.45l-13.79,6.76c-.43.21-.91.3-1.39.25-3.41-.34-6.15-2.12-8.21-5.34-1.02-2.55-2.16-5.1-3.41-7.66-3.77-7.68-8.53-17.73-14.26-30.15-2.19-4.77-3.5-8.91-3.93-12.43-.04-.35.1-.7.36-.94,2.92-2.6,5.95-4.64,9.09-6.13.23-.11.49,0,.6.23.01.03.02.05.03.08.27,1.13.51,1.91.7,2.34,4.26,9.41,9.39,21.05,14.78,31.26,3.57,6.75,6.26,11.48,8.09,14.17,2.13,3.14,5.91,5.66,11.34,7.56Z"/>
  <path class="st5" d="M102.29,725.61c2.53-1.41,4.43-1.61,7.03-.71,2.65.92,5.46,1.9,8.41,2.95,1.65.59,2.07,1.72,1.25,3.4-.16.33-1.5,3.84-4.02,10.51-.69,1.81-1.99,2.41-3.92,1.81-6.24-1.94-10.21-2.62-15.4-4.85-4.19-1.79-9.33-3.48-15.43-5.05-2.03-.53-6.68-2.62-13.95-6.27-1.19-.59-2.27-1.07-3.24-1.44-1.39-.53-2.63-1.85-4.33-2.45-3.51-1.22-6.58-3.12-9.22-5.7-.79-.77-1.1-1.85-.95-3.24.57-5.14,3.53-8.89,6.52-13.04.37-.51,1.08-.63,1.59-.27l2.05,1.42c.43.3.91.49,1.42.58,8.88,1.58,16.46,7.13,25.06,9.84,4.12,1.3,7.9,3.02,11.33,5.17,2.21,1.38,3.83,3.7,4.84,6.95.11.35.49.55.84.44.04-.01.08-.03.12-.05Z"/>
  <path class="st5" d="M573.1,716.87l-16.83,10.11c-.27.16-.54.3-.83.43l-15.16,6.77c-.31.13-.62.24-.95.31-5.47,1.24-9.82,2.62-13.07,4.14-5.33,2.5-11.99,3.99-16.42,2.43-3.8-1.32-6.06-7.61-6.68-11.22-.07-.46.12-.93.49-1.2,3.5-2.6,6.88-3.73,12.08-5.65,4.53-1.68,7.25-3.93,11.35-6.1,4.46-2.37,9.97-3.54,14.74-5.72,3.25-1.49,6.39-2.78,9.4-3.86,3.61-1.3,5.84-2.6,8.84-4.12,4.33-2.19,8.27-1.95,10.46,3.19,1.28,3.01,2.33,6.05,3.14,9.12.14.53-.09,1.08-.56,1.37Z"/>
  <path class="st4" d="M617.48,832.68c-3.41-.82-6.28-.97-8.62-.46-4.98,1.09-9.95,2.03-14.91,2.84-13.76-1.76-27.95-.54-42.58,3.66-9.19,2.64-16.36,5.95-21.49,9.93-.87.68-1.92,2.09-3.14,4.22-.16.28-.5.4-.8.29-3.67-1.37-6.72-4.06-9.16-8.06l7.88,5.89c.4.3.96.22,1.27-.18.03-.04.06-.09.08-.14.91-1.79,1.52-3.85,1.83-6.19.06-.42.44-.72.86-.67,3.2.37,6.25-.49,9.16-2.58.18-.13.22-.38.1-.56-.03-.04-.06-.08-.11-.1-2.76-1.81-4.35-2.98-4.78-3.49-1.46-1.77-2.87-4.29-4.22-7.57-3.29-7.95-6.09-16.74-8.4-26.39-3.29-13.73-5.91-27.55-7.84-41.44-.61-4.36-.33-7.75.83-10.16,1.2-2.48,1.76-4.52,1.67-6.11,12.7-3.64,25.11-8.07,37.24-13.28,9.17-3.94,18.07-8,25.27-14.37.32-.28.75-.4,1.17-.32,8.89,1.68,12.85,10.82,15.99,18.36,9.9,23.75,16.91,48.14,21.04,73.15.93,5.63,1.58,11.46,1.94,17.48.12,2.09.03,4.17-.28,6.25Z"/>
  <path class="st4" d="M106.44,745.54c-1.07,1.35-1.14,3.19-.22,5.52.79,2,1.23,3.31,1.32,3.94.21,1.44.25,2.83.11,4.18-.6,5.85-.92,10.99-2.2,17.24-1.82,8.86-3.02,14.69-3.61,17.5-1.97,9.36-4.96,19.62-8.98,30.78-1.62,4.51-3.14,7.72-4.57,9.64-1.53,2.07-4.13,3.78-7.78,5.12-.56.2-.98.65-1.16,1.2-.27.81-.67,1.29-1.22,1.45-14.58-5.91-29.75-8.46-45.5-7.64-5.69.3-19.9,1.82-20.85,9.63-.02.16-.17.28-.34.26-.04,0-.08-.02-.12-.05-8.13-5.52-8.44-14.21-7.38-23.33,3.25-27.9,10.54-54.93,21.09-80.92,2.07-5.09,4.47-10,7.22-14.74,2.53-4.37,6.23-6.95,11.1-7.76.5-.09,1,.1,1.33.48,4.13,4.8,10.45,7.72,16.4,10.59,14.67,7.1,29.79,12.74,45.36,16.91Z"/>
  <path class="st8" d="M515.11,745.41c.09,1.59-.47,3.63-1.67,6.11-1.16,2.41-1.44,5.8-.83,10.16,1.93,13.89,4.55,27.71,7.84,41.44,2.31,9.65,5.11,18.44,8.4,26.39,1.35,3.28,2.76,5.8,4.22,7.57.43.51,2.02,1.68,4.78,3.49.18.12.23.37.11.55-.03.04-.06.08-.1.11-2.91,2.09-5.96,2.95-9.16,2.58-.42-.05-.8.25-.86.67-.31,2.34-.92,4.4-1.83,6.19-.23.45-.77.63-1.22.4-.05-.02-.09-.05-.13-.08l-7.88-5.89c-3.57-8.59-6.46-17.75-8.65-27.46-3.83-16.95-6.61-34.19-8.33-51.7-.28-2.85-.29-6.24-.04-10.15.25-3.8,1.8-6.8,4.66-9,.29-.22.63-.36.98-.42.84-.15,1.77.68,3.05.47,2.26-.37,4.48-.85,6.66-1.43Z"/>
  <path class="st8" d="M106.44,745.54c3.17.65,6.25,1.89,9.47,1.07.34-.08.69-.02.98.18,4.52,3.15,5.46,8.96,5.07,14.14-1.93,25.63-6.7,50.95-14.31,75.97-2.23,7.32-5.12,13.82-12.83,16.32-.3.1-.64-.02-.8-.3-3.18-5.32-10.37-8.56-15.89-10.81.55-.16.95-.64,1.22-1.45.18-.55.6-1,1.16-1.2,3.65-1.34,6.25-3.05,7.78-5.12,1.43-1.92,2.95-5.13,4.57-9.64,4.02-11.16,7.01-21.42,8.98-30.78.59-2.81,1.79-8.64,3.61-17.5,1.28-6.25,1.6-11.39,2.2-17.24.14-1.35.1-2.74-.11-4.18-.09-.63-.53-1.94-1.32-3.94-.92-2.33-.85-4.17.22-5.52Z"/>
  <path class="st3" d="M343.17,786.72c0,3.97-3.21,7.18-7.18,7.18h-50.74c-3.97,0-7.18-3.21-7.18-7.18v-.38c0-3.97,3.21-7.18,7.18-7.18h50.74c3.97,0,7.18,3.21,7.18,7.18v.38ZM310.18,790.6c11.66-.01,18.31-.05,19.95-.1,4.22-.15,10.2-.43,8.34-6.43-.09-.29-.26-.56-.48-.77-.99-.91-2.18-1.37-3.59-1.39-9.56-.13-17.64-.2-24.23-.19-6.6.01-14.68.1-24.24.25-1.41.02-2.6.48-3.58,1.39-.22.21-.39.48-.48.78-1.85,6,4.13,6.27,8.35,6.4,1.64.05,8.29.07,19.96.06Z"/>
  <path class="st2" d="M310.17,781.72c6.59,0,14.67.06,24.23.19,1.41.02,2.6.48,3.59,1.39.22.21.39.48.48.77,1.86,6-4.12,6.28-8.34,6.43-1.64.05-8.29.09-19.95.1-11.67.01-18.32,0-19.96-.06-4.22-.13-10.2-.4-8.35-6.4.09-.3.26-.57.48-.78.98-.91,2.17-1.37,3.58-1.39,9.56-.15,17.64-.24,24.24-.25Z"/>
  <path class="st6" d="M351.24,844.39c-.9-.14-1.51-.99-1.37-1.89.08-.47.35-.89.76-1.14l8.86-5.5c.14-.09.26-.2.35-.33l3.26-4.72c.56-.8,1.24-1.5,2.03-2.07,1.73-1.25,4.2-2.8,6-4.58,3.85-3.8,8.07-5.69,11.71-8.62,3.82-3.09,8.24-5.71,13.27-7.86,5.63-2.41,11.05-5.08,16.26-7.99,2.21-1.23,6.38-2.68,12.49-4.33.37-.1.77.02,1.03.31,2.2,2.46,3.31,5.61,3.33,9.45,0,.32-.1.64-.3.89-.93,1.21-1.78,2.18-2.56,2.9-7.81,7.2-12.16,11.28-20.21,15.58-2.36,1.25-12.21,5.98-29.54,14.17-2.13,1.01-3.68,1.64-4.65,1.89-4.23,1.11-8.44,2.45-12.61,4.04-1.32.5-2.74.65-4.14.43l-3.97-.63Z"/>
  <path class="st5" d="M197.44,795.95c4.27,1.21,7,2.12,8.18,2.75,2.49,1.33,7.63,3.86,15.42,7.6,10.44,5.03,20.38,11.37,29.81,19.03,3.27,2.65,6.33,4.08,8.99,6.65,2.34,2.27,4.77,4.33,7.29,6.18,1.77,1.3,3.13,2.88,4.06,4.75.31.63.06,1.39-.57,1.7-.04.02-.09.04-.13.06-2.98,1.1-6.14,1.05-9.49-.16-13.23-4.78-23.82-8.99-31.77-12.62-4.61-2.11-12.42-6.42-23.43-12.95-1-.59-3.1-2.17-6.31-4.74-5.19-4.14-9.48-12.7-3.03-18.04.28-.23.64-.3.98-.21Z"/>
  <path class="st5" d="M433.34,806.19c2.74,5.12,4.5,10.53,5.28,16.24.34,2.56-.26,6.17-.57,8.19-.09.56-.27,1.09-.54,1.57-1.89,3.37-3.64,5.83-5.25,7.37-4.03,3.83-9.55,8.26-16.57,13.28-.53.39-1.11.7-1.72.95-12.02,4.79-19.4,7.68-22.13,8.65-4.07,1.45-8.44,2.36-13.11,2.71-4.23.32-6.4.49-6.52.52-3.48.72-7.35,1.16-10.61.8-.39-.05-.7-.33-.79-.71-.02-.09-.55-.76-1.59-2.02-3.06-3.72-4.13-8.45-4.04-13.55.01-.75.58-1.37,1.33-1.45,3.57-.35,7.51-1.55,11.8-3.61,6.88-3.31,12.84-4.99,19.72-8.04,1.32-.58,2.28-1.42,3.47-1.9.62-.25,4.49-1.83,11.61-4.75.59-.25,1.74-1.06,3.43-2.45.72-.59,1.49-1.1,2.31-1.53,7.43-3.91,13.76-8.37,18.97-13.4,2.15-2.08,3.17-3.71,4.5-6.83.12-.29.45-.42.74-.3.12.05.22.14.28.26Z"/>
  <path class="st5" d="M265.52,849c.74.24,1.24.92,1.24,1.7l.03,6.1c0,1.04-.24,2.06-.71,2.99-.33.64-1.07,2.44-2.24,5.4-.48,1.21-1.64,1.79-3.49,1.74-2.31-.07-6.09-.42-11.34-1.05-.56-.07-1.12-.09-1.68-.06-2.32.11-5.39-.07-9.21-.56-1.57-.2-3.9-1.02-6.99-2.46-2.39-1.11-5.67-1.99-9.85-2.64-.64-.1-1.27-.3-1.85-.59l-16.83-8.47c-.06-.03-.12-.06-.17-.11-8.89-7.13-14.64-12.39-17.26-15.78-1.67-2.15-2.38-5-2.11-8.56.26-3.38.92-20.14,6.88-18.18.48.15,1.43,1.12,2.85,2.9,4.72,5.9,10.03,10.57,15.93,14,7.49,4.36,16.88,8.95,28.19,13.78,9.31,3.97,15.91,5.7,28.61,9.85Z"/>
  <path class="st4" d="M247.34,869.48c.37.67.4,1.3.09,1.89-.14.28-.16.59-.08.88.23.79.72,1.79,1.47,3.02,2.14,3.54,3.19,7.45,3.79,11.75,5.19,37.01,6.11,74.15,2.78,111.42-.14,1.48.06,3.46-.19,4.98-.61,3.66-1.14,7.64-1.58,11.94,0,.12-.03.24-.06.35l-4.05,16.52c-.01.07,0,.13.01.19,2.06,5.14,4.67,8.62,7.83,10.44,2.69,1.55,5.28,2.06,7.77,1.54,3.69-.77,8.17-2.52,13.43-5.24-2.25,2.78-4.93,4.68-8.06,5.7-9.14,2.96-15.69.63-20.05-7.98-7.9-15.65-19.95-30.05-35.29-39.19-19.63-11.69-45.15-13.99-65.45-2.43-10.51,5.98-17.76,14.56-21.76,25.74-.13.37-.36.71-.67.96l-3.69,3.09c-.16.14-.4.12-.54-.05-.05-.06-.08-.13-.09-.21-.47-5.29-.4-10.58.2-15.86,1.07-9.42,2.28-17.96,3.61-25.61,6.21-35.76,14.96-71.1,26.24-106.03,3.37-10.42,7.15-20.63,11.35-30.64,2.46-5.85,4.69-10.61,6.69-14.26,1.83-3.32,4.52-5.36,8.07-6.13.3-.07.6.12.67.43.01.05.01.1.01.14-.11,3.35.15,5.41,1.81,8.33,2.27,4.03,5.54,7.78,9.81,11.24,15.98,12.99,35.7,20.41,55.93,23.08Z"/>
  <path class="st4" d="M344.8,1040.4l14.95,3.99c.56.14,1.13-.17,1.3-.72.97-3.18,3.29-5.37,6.96-6.57.15-.05.28-.14.37-.28l2.74-3.95c.16-.24.22-.54.14-.83l-3.33-12.16c-.15-.5-.3-1.59-.41-2.96-.09-1.16-.48-3.24-1.16-6.23-1-4.35-.23-9.97-.92-14.66-.62-4.21-1.05-9.75-1.29-16.6-.87-24.67-.26-48.31,1.83-70.92.82-8.91,2.36-17.68,3.92-27.05.45-2.73,2.4-6.83,5.84-12.29,9.09-1.45,18.22-3.96,27.39-7.53,15.2-5.91,30.05-14.83,38.39-29.25.13-.21.2-.45.23-.69l.57-4.63c.05-.44.46-.76.91-.7.03,0,.05,0,.08.01,2.93.67,5.19,2.37,6.77,5.12,2.61,4.53,4.67,8.61,6.2,12.26,7.04,16.8,13.4,34.93,19.08,54.39,10.63,36.41,18.64,73.17,23.27,110.28.75,6.03.92,11.59.5,16.67-.02.21-.2.36-.41.34-.08,0-.16-.04-.23-.1l-4.1-3.89c-.12-.11-.21-.26-.26-.42-4.96-16.44-21.76-28.68-38.2-31.84-18.21-3.5-35.03-.62-50.47,8.64-17.08,10.24-27.07,24.66-37.06,42.55-1.58,2.83-4.12,4.71-7.63,5.64-.3.08-.61.12-.92.12-5.68.06-10.7-1.85-15.05-5.74Z"/>
  <path class="st8" d="M617.48,832.68c-.75,4.42-3.06,8.26-6.94,11.53-.19.17-.48.15-.65-.05-.04-.05-.07-.1-.09-.16-1.97-6.31-10.15-7.98-15.85-8.94,4.96-.81,9.93-1.75,14.91-2.84,2.34-.51,5.21-.36,8.62.46Z"/>
  <path class="st5" d="M88.69,855.73c-1.68-1.21-4.07-3.27-6.9-4.52-5.66-2.49-10.54-4.49-14.64-5.98-3.35-1.23-7.82-2.22-11.89-2.02-3.92.18-6.67.06-11.04-.6-5.38-.82-10.31-.81-14.79.02-7.26,1.35-11.56,2.06-12.89,2.12-.7.03-1.29-.51-1.32-1.21-.01-.28.07-.55.22-.78l1.14-1.65c.94-1.36,2.44-2.24,4.08-2.4,9.91-.99,19.03-2.34,29.41-1.3,4.91.49,8.8,2.8,13.81,3.64,8.81,1.48,21.49,5.19,26.95,12.5.5.69.34,1.66-.35,2.16-.53.38-1.25.39-1.79.02Z"/>
  <path class="st5" d="M530.9,855.56c-.45.13-.92-.07-1.15-.47-1.99-3.46,2.44-5.39,5.3-7.28.13-.09.28-.16.43-.22l17.01-6.7c.19-.07.38-.12.58-.15,2.57-.39,3.97-.45,5.82-1.01,7.48-2.26,15.71-3.21,24.7-2.84,2.8.12,4.97.33,6.5.64,3.16.64,5.31.96,6.46.97,4.25.03,8.15,1.98,10.02,5.46.19.35.06.78-.29.96-.16.09-.35.11-.53.06-4.27-1.24-7.44-1.22-11.89-1.95-1.6-.27-3.74-.46-6.41-.58-6.34-.29-13.64.03-21.89.95-6.13.69-11.41,2.33-17.44,3.54-3.14.63-7.64,2.87-10.76,5.43-1.69,1.38-3.84,2.44-6.46,3.19Z"/>
  <path class="st5" d="M82.16,855.05c.09.17.03.37-.14.46-.04.02-.08.03-.12.04-7.77.69-12.98,4.76-15.65,12.23-2.46,6.88-2.55,13.42,1.06,19.56.3.51.28,1.15-.06,1.64l-6.7,9.67c-.47.68-1.4.85-2.08.38-.07-.05-.13-.1-.19-.16-1.62-1.57-3.43-2.59-5.43-3.06-3.65-.87-7.18-1.19-10.58-.96-4.87.33-7.56,3.15-9.49,7.21-.2.42-.71.61-1.13.41-.08-.04-.15-.09-.22-.15-2.33-2.2-5.16-2.98-8.49-2.35-3.52.68-4.43,3.59-5.91,5.79-.38.57-1.12.75-1.71.42-2.33-1.27-4.81-1.92-7.43-1.95-.52,0-.94-.4-.99-.91-.05-.57-.47-6.53-1.27-17.88-.25-3.64.03-7.97.85-12.98,1.66-10.08,1.9-14.61,5.14-21.28,1.6-3.29,5.91-3.05,8.63-4.12,4.49-1.77,8.86-2.47,13.1-2.09,4.16.37,6.87.56,8.13.59.57.01,1.13-.03,1.69-.14,4.28-.79,8.13-.61,11.54.56,2.79.96,5.09,1.62,6.88,1.99,7.74,1.58,13.64,2.74,19.59,6.15.47.27.79.58.98.93Z"/>
  <path class="st5" d="M540.19,855.59c-.64-.17-1.01-.82-.84-1.46.11-.41.43-.73.84-.84,1.53-.39,2.94-.76,4.25-1.11,4.26-1.11,8.46-3.18,12.48-4.17,6.86-1.69,14.06-2.65,21.59-2.86,7.3-.21,12.55-.47,17.7.9,4.11,1.09,7.64,1.95,10.61,2.59.96.2,1.78.84,2.21,1.73,2.27,4.67,3.82,9.64,4.56,15.43.46,3.65,1.09,8,1.89,13.07.53,3.4.22,7.54-.63,12.05-.54,2.85-.76,6.43-.66,10.74.03,1.29-.33,2.24-1.07,2.84-.29.23-.65.35-1.02.32-2.57-.21-4.86.12-6.89.97-.71.3-1.53-.04-1.83-.75,0-.02-.01-.03-.02-.05-1.35-3.57-3.93-5.28-7.74-5.11-2.67.11-5.3,2.09-7.54,3.15-.84.4-1.85.06-2.28-.76-5.93-11.26-16.72-9.27-25.74-3.26-.27.18-.61.23-.92.14-2.68-.76-5.32-5.63-7.67-9.29-.79-1.23-.94-2.49-.44-3.78,4.29-10.99,2.54-27.05-10.84-30.49Z"/>
  <path class="st5" d="M542.73,892.26c-3.84-4.32-10.49-9.22-16.64-9.57-2.21-.13-4.15.01-5.84.41-.36.08-.71-.14-.79-.49,0-.03-.01-.06-.01-.1l.04-.85c.01-.19.05-.37.1-.56l3.42-11.47c.2-.68.56-1.32,1.04-1.86,1.79-2.02,3.65-4.36,5.58-7.03,1.04-1.43,2.74-2.6,5.11-3.51.41-.16.84-.23,1.27-.2,8.07.5,12.2,5.4,13.9,13.25,1.72,7.98-.33,15.3-6.16,21.97-.25.28-.69.31-.97.06-.02-.02-.04-.03-.05-.05Z"/>
  <path class="st5" d="M97.93,882.83c-5.85-1.16-11,.15-15.47,3.92-2.34,1.97-4.34,3.93-6,5.86-.35.4-.95.45-1.35.1-.03-.03-.06-.06-.09-.09-2.35-2.64-4.05-4.2-5.57-6.86-2.74-4.83-3.28-11.78-.97-17,2.37-5.35,6.57-8.88,12.61-10.58,3.51-.99,6.33-.1,8.47,2.67,1.03,1.33,2.68,3.73,4.96,7.21,1.69,2.59,2.45,4.69,2.78,7.89.24,2.38.65,4.45,1.22,6.22.09.27-.06.56-.32.65-.09.03-.18.03-.27.01Z"/>
  <path class="st8" d="M278.55,1039.16c-5.26,2.72-9.74,4.47-13.43,5.24-2.49.52-5.08,0-7.77-1.54-3.16-1.82-5.77-5.3-7.83-10.44-.02-.06-.02-.12-.01-.19l4.05-16.52c.03-.11.05-.23.06-.35.44-4.3.97-8.28,1.58-11.94.25-1.52.05-3.5.19-4.98,3.33-37.27,2.41-74.41-2.78-111.42-.6-4.3-1.65-8.21-3.79-11.75-.75-1.23-1.24-2.23-1.47-3.02-.08-.29-.05-.6.08-.88.31-.59.28-1.22-.09-1.89,4.69.48,9.36.51,14.02.09,1.92-.17,3.36-.96,4.31-2.37.15-.24.47-.31.71-.17,4.2,2.37,5.49,5.26,6.39,10.23,6.07,33.7,9.32,67.75,9.99,101.67.31,15.71-.21,31.65-1.56,47.81-.42,4.95-1.3,9.09-2.65,12.42ZM270.26,1000.41c-4-.15-7.5,6.29-7.81,14.4h0c-.31,8.11,2.68,14.8,6.68,14.96h0c4,.15,7.5-6.29,7.81-14.4h0c.31-8.11-2.68-14.8-6.68-14.96h0Z"/>
  <path class="st8" d="M375.74,869.17c-3.44,5.46-5.39,9.56-5.84,12.29-1.56,9.37-3.1,18.14-3.92,27.05-2.09,22.61-2.7,46.25-1.83,70.92.24,6.85.67,12.39,1.29,16.6.69,4.69-.08,10.31.92,14.66.68,2.99,1.07,5.07,1.16,6.23.11,1.37.26,2.46.41,2.96l3.33,12.16c.08.29.02.59-.14.83l-2.74,3.95c-.09.14-.22.23-.37.28-3.67,1.2-5.99,3.39-6.96,6.57-.17.55-.74.86-1.3.72l-14.95-3.99c-1.55-2.35-2.52-5.26-2.91-8.73-1.31-11.74-2.17-23.18-2.16-35.02.03-36.6,2.8-73.28,8.32-110.05.53-3.51,1.22-7.22,2.07-11.13.78-3.53,2.63-6.14,5.55-7.83.45-.26,1.01-.18,1.37.19,1.31,1.38,2.92,2.08,4.84,2.09,4.28.03,8.9-.22,13.86-.75ZM351.57,1000.32c-3.81.13-6.69,6.84-6.42,15h0c.27,8.16,3.58,14.67,7.4,14.54,3.81-.13,6.69-6.84,6.42-15h0c-.27-8.16-3.58-14.67-7.4-14.54Z"/>
  <path class="st5" d="M538.39,908.11c-1.27,2.27-2.13,3.83-2.56,4.66-3.16,6.04-8.06,6.69-14.3,5.08-4.02-1.03-5.66-4.06-5.92-8.17-.38-6.05.08-11.89,1.37-17.5,1.04-4.49.7-6.64,5.43-7.06,4.54-.41,7.69,1.3,11.71,3.65,2.46,1.45,4.37,3.27,5.73,5.44,2.08,3.34-.03,11.34-1.46,13.9Z"/>
  <path class="st5" d="M98.9,886.6c4.02,2.66,3.19,8.27,3.06,13.22-.01.64.06,1.28.21,1.9,1.72,6.85,1.85,13.67-5.85,16.39-2.95,1.04-5.33,1.33-7.15.86-5.24-1.34-9.02-7.43-10.23-12.62-.46-1.98-.7-4.55-.73-7.7-.02-2.49.64-4.48,1.97-5.98,4.58-5.15,10.55-7.27,17.9-6.37.3.03.58.14.82.3Z"/>
  <path class="st5" d="M43.76,930.6c-1,.47-2.19.05-2.66-.95-.01-.03-.02-.05-.04-.08-2.61-6.25-4.66-12.43-6.16-18.54-1.43-5.81-.9-10.72,5.13-13.31,5.48-2.36,11.44-.76,16.04,2.79,2.76,2.13,2.2,7.19,2.21,10.64,0,.38.08.74.24,1.08,1.21,2.62,1.8,5.02,1.79,7.2,0,.36-.11.71-.31,1-4.14,6.13-10.14,7.29-16.24,10.17Z"/>
  <path class="st5" d="M576.42,929.94c-6.27-1.87-12.8-3.5-17.59-8.34-1.07-1.08-1.46-2.67-.99-4.12,1.71-5.26,2.12-8.77,2.76-15.14.04-.41.22-.79.5-1.07,4.8-4.84,8.57-5.41,14.96-4.19,5.77,1.1,9.53,4.95,7.89,11.09-1.02,3.85-1.64,5.37-2.12,9.21-.47,3.72-1.98,7.79-4.53,12.21-.18.31-.54.46-.88.35Z"/>
  <path class="st5" d="M39.3,932.74c-.2.47-1.07.95-2.62,1.45-3.33,1.07-6.01,1.16-8.06.29-.55-.24-1.03-.61-1.38-1.09-3.33-4.48-6.73-10.61-7.33-16.75-.41-4.31-.61-7.04-.6-8.2.05-3.44,1.86-5.26,5.44-5.45.08,0,.16.01.23.03l6.64,2.4c.35.12.6.42.66.79.15.93.3,2.91.45,5.96.25,5.24,1.22,9.99,3.95,14.7,1.71,2.94,2.6,4.55,2.68,4.83.1.34.08.71-.06,1.04Z"/>
  <path class="st5" d="M591.02,934.52c-3.67.32-6.93-.16-9.8-1.43-1.15-.52-1.72-1.83-1.3-3.02.72-2.02,1.72-4.12,3.01-6.3,1.92-3.26,3.61-7.53,3.51-10.39-.12-3.4-.18-5.29-.18-5.68,0-1.26.85-2.37,2.07-2.69,2.54-.67,5.23-1.24,8.06-1.71,4.32-.72,4.64,3.53,4.7,6.48.09,4.55-.38,8.18-1.41,10.9-.57,1.49-2.33,4.99-5.28,10.52-.93,1.75-1.82,2.8-2.67,3.15-.23.09-.46.14-.71.17Z"/>
  <path class="st5" d="M10.08,906.92c2.1-.57,3.98.12,5.63,2.09.23.28.36.63.35,1-.04,2.37-.08,4.12.54,6.41,1.22,4.47,2.79,8.89,4.7,13.25.14.3,0,.66-.3.79-.21.1-.46.06-.63-.08-1.33-1.09-2.4-2.49-3.23-4.21-2.8-5.81-5.37-11.81-7.7-17.99-.19-.49.05-1.04.54-1.23.03-.01.06-.02.1-.03Z"/>
  <path class="st5" d="M598.51,931.75c1.37-2.61,2.18-5.1,2.44-7.47.02-.19.06-.38.13-.57l3.2-8.87c.07-.19.11-.39.13-.59l.45-4.57c.05-.52.36-.98.82-1.23,1.81-.97,3.26-1.46,4.35-1.47.65,0,1.17.51,1.18,1.16,0,.14-.02.28-.07.41-.89,2.44-2.33,6.24-4.33,11.4-.54,1.4-1.29,2.94-2.24,4.61-2.05,3.61-3.25,5.92-5.58,7.6-.15.1-.36.07-.46-.08-.07-.1-.08-.23-.02-.33Z"/>
  <path class="st5" d="M61.82,922.75c.38-.23.88-.11,1.11.28.01.02.02.03.03.05,1.43,2.8,3.45,5.46,6.04,7.99,3.8,3.7,4.68,7.82,2.65,12.36-1.32,2.94-4.88,4-7.88,4.73-.48.11-.98.13-1.46.05-6.87-1.18-11.24-5.96-16.26-11.15-.83-.86-1.38-1.68-1.63-2.46-.23-.7.14-1.45.84-1.69.07-.02.15-.04.22-.05,4.88-.76,12.49-4.55,14.7-8.59.31-.58,1.24-1.27,1.64-1.52Z"/>
  <path class="st5" d="M574.35,933.63c-.89,1.91-2.74,3.83-5.55,5.75-.27.19-.52.4-.75.65-4.08,4.49-8.65,10.1-14.73,8.39-6.28-1.78-10.05-7.95-6.64-14.1.43-.77,1.86-2.46,4.31-5.06,1.31-1.4,2.55-3.22,3.74-5.46.43-.82,1.45-1.13,2.28-.69.19.1.35.23.49.39l2.54,2.96c.1.11.22.21.35.3l6.65,4.06c.06.03.12.06.18.09,1.81.71,3.76.99,5.85.85.73-.04,1.35.51,1.4,1.24.01.22-.03.44-.12.63Z"/>
  <path class="st5" d="M559.96,952.2l-1.3-.66c-.36-.18-.51-.62-.33-.98.09-.18.24-.31.43-.37,1.08-.35,3.18-.89,6.31-1.63,1.83-.43,5.22-3.8,6.57-5.74,1.67-2.4,3.48-5.18,5.45-8.34.26-.42.81-.54,1.23-.28,0,0,.01,0,.02.01,1.4.91,2.84,1.61,4.33,2.09,2.22.7,4.52.48,6.64.59.58.03,1.04.53,1.01,1.11-.01.23-.1.45-.25.63-2.25,2.7-5.61,4.38-8.61,7.02-2.57,2.25-5.83,3.81-9.76,4.69-3.83.86-6.98,1.57-9.46,2.13-.77.17-1.58.08-2.28-.27Z"/>
  <path class="st5" d="M31.01,938.79c-.22-.55.05-1.18.6-1.4.08-.03.16-.05.24-.07l8.73-1.34c.71-.11,1.42.23,1.79.85,1.68,2.87,2.06,4,4.32,6.11,3.18,2.97,6.66,5.11,10.44,6.42.3.11.58.25.85.43l2.38,1.65c.27.18.34.55.16.82-.08.12-.2.2-.33.24-2.56.75-4.94.69-7.14-.2-3.17-1.27-7.87-3.48-14.1-6.62-.39-.2-.76-.43-1.11-.69-2.71-2-5.75-3.54-6.83-6.2Z"/>
  <path class="st5" d="M277.33,1043.89c.33-.22.78-.14,1,.19.05.08.09.16.11.25.95,4.42,1.07,9.03.36,13.82-.04.3-.2.57-.44.75-3.87,2.91-8.39,4.89-13.56,5.94-7.11,1.45-12.83,2.67-17.15,3.64-.56.12-1.12-.23-1.24-.79,0-.05-.02-.09-.02-.14-.27-3.07-.86-5.75-1.78-8.04-2.41-5.98-4.69-11.17-6.85-15.56-1.59-3.23-4.01-6.75-7.26-10.56-3.22-3.77-6.16-6.93-8.83-9.48-2.42-2.31-5.18-4.31-8.27-5.99-5.82-3.17-10.93-5.81-15.33-7.91-5.53-2.64-10.74-3.06-17.44-4.11-3.52-.55-6.7-.7-9.54-.43-7.25.67-12.85,1.45-16.82,2.32-.74.16-4.79,1.63-12.16,4.41-1.27.48-2.46,1.13-3.56,1.93-1.65,1.19-2.61,1.9-2.9,2.11-.51.38-.94.54-1.27.48-.41-.07-.67-.48-.58-.92.02-.11.07-.22.14-.32,1.54-2.18,3.28-4.76,5.21-7.75.83-1.28,2.89-3.27,6.18-5.96,2.57-2.11,6.06-3.16,9.22-5.06,1.02-.62,2.28-1.22,3.78-1.8,2.56-.99,4.86-1.83,6.91-2.52,4.85-1.63,8.94-1.73,13.87-1.37,2.53.19,5.85.11,9.98-.22.33-.02.65,0,.98.07,3.89.87,6.96,2.6,10.47,3.75,5.47,1.8,8.87,4.03,14.98,7,5.86,2.85,9.34,6.55,13.68,11.77.21.26.45.5.71.71,4.67,3.84,7.91,7.2,9.73,10.07.16.26,3.28,5.95,9.35,17.07.2.36.45.7.75,1,5.83,5.8,11.07,9.12,19.93,6.75.12-.03.23-.09.33-.16l7.33-4.94Z"/>
  <path class="st5" d="M345.41,1044.01c5.26,4.49,12.23,7.77,19.2,3.79,4.52-2.57,7.58-7.11,10.53-11.49.95-1.41,1.99-3.36,3.13-5.86,1.41-3.08,3.12-5.75,5.14-8,6.64-7.42,10.52-11.94,11.63-13.57.2-.3.46-.54.77-.72,3.24-1.94,5.33-3.04,7.77-5.38,6.76-6.44,18.03-8.9,27.28-11.63,1.23-.36,2.74-.49,4.53-.38,6.02.35,10.85.39,14.48.1,1.74-.13,5.13.49,7.12,1.64,1.86,1.07,5.23,2.43,8.04,3.44,2.37.87,4.21,1.8,5.52,2.79.26.2.55.34.87.41,1.38.32,2.53.9,3.45,1.73,1.27,1.13,2.47,2,3.6,2.61.48.26.9.6,1.26,1,3.19,3.55,6.4,7.4,9.63,11.54.4.51.58.97.55,1.38-.03.38-.36.66-.74.63-.13-.01-.25-.06-.36-.13-3.76-2.82-6.41-4.76-10.58-6.34-9.78-3.7-18-6.82-28.14-6.17-8.62.55-14.23,1.04-16.82,1.45-1.78.29-7.86,2.38-18.24,6.27-.64.24-1.25.55-1.81.92-3.01,1.97-7.11,4.7-12.29,8.2-2.97,2-5.15,5.07-7.46,7.61-5.17,5.69-8.32,9.35-9.43,10.97-1.92,2.78-2.92,6.41-4.47,9.53-1.06,2.11-2.07,4.12-3.04,6.02-1.51,2.95-2.47,6.25-2.89,9.88-.15,1.21-.75,1.65-1.8,1.33-2.54-.78-5.4-.88-7.22-1.37-1.19-.33-2.99-.66-5.38-.99-4.87-.68-9.81-2.13-14.8-4.34-.77-.34-1.24-1.13-1.17-1.96l1.15-14.5c.02-.33.31-.58.64-.55.13,0,.25.06.35.14Z"/>
  <ellipse class="st1" cx="269.69" cy="1015.09" rx="14.69" ry="7.25" transform="translate(-755.0007 1245.6128) rotate(-87.8)"/>
  <ellipse class="st1" cx="352.06" cy="1015.09" rx="6.91" ry="14.78" transform="translate(-33.46 12.23) rotate(-1.9)"/>
  <path class="st3" d="M377.56,1068.93c-.45-.07-.76-.51-.68-.96,0,0,0-.01,0-.02,1.04-5.33,2.56-10.41,4.55-15.22,1.78-4.31,5.07-9.6,9.86-15.87,12.62-16.49,33.24-28.64,54.6-28.59,7.76.02,16.71.41,23.97,3.28,6.29,2.48,11.5,5,15.62,7.57,8.8,5.48,16.72,13.76,21.52,23.57,3.58,7.29,6.19,13.4,7.32,20.89.14.92-.37,1.81-1.23,2.17-1.29.53-2.52.94-3.67,1.23-10.11,2.53-20.38,4.32-30.81,5.35-34.17,3.38-67.85,2.25-101.05-3.4ZM444.82,1030.66c-1.01-5.14-6.53-8.39-12.34-7.25-5.8,1.14-9.69,6.23-8.68,11.37h0c1.01,5.14,6.53,8.39,12.34,7.25s9.69-6.23,8.68-11.37Z"/>
  <path class="st3" d="M228.59,1035.93c-3.58,6.29-5.32,12.68-8.72,22.95-.74,2.25-2.41,5.12-5.01,8.62-1.17,1.56-2.18,3.53-3.19,5.28-22.17,1.84-44.3,1.79-66.41-.15-6.05-.53-11.36-1.2-15.95-1.99-8.13-1.42-14.65-2.42-20.53-4.59-.72-.27-1.15-1-1.03-1.75,2.52-16.37,9.91-29.82,22.16-40.35,3.2-2.75,6.52-5.03,9.95-6.82,9.22-4.83,16.39-8.03,26.27-8.43,7.53-.3,13.24-.18,17.13.36,1.28.18,4.96,1.11,11.03,2.8,3.98,1.11,7.48,2.52,10.51,4.23,9.03,5.11,18,11.54,23.79,19.84ZM172.84,1027.83c-1.97-4.89-9.03-6.66-15.78-3.95-6.75,2.71-10.62,8.88-8.66,13.77,1.97,4.89,9.03,6.66,15.78,3.95,6.75-2.71,10.62-8.88,8.66-13.77Z"/>
  <ellipse class="st2" cx="160.62" cy="1032.74" rx="13.17" ry="9.55" transform="translate(-373.61 134.44) rotate(-21.9)"/>
  <ellipse class="st2" cx="434.31" cy="1032.72" rx="10.71" ry="9.49" transform="translate(-190.7 102.93) rotate(-11.1)"/>
  <path class="st1" d="M211.67,1072.78c1.01-1.75,2.02-3.72,3.19-5.28,2.6-3.5,4.27-6.37,5.01-8.62,3.4-10.27,5.14-16.66,8.72-22.95,7.68,9.47,12.61,20.14,14.79,32,.11.57-.27,1.13-.84,1.24-.02,0-.04,0-.06,0-8.6,1.19-17.3,2.35-26.09,3.5-1.58.21-3.15.24-4.72.1Z"/>
  <path class="st5" d="M516.27,1066.98c.44-.24.99-.07,1.23.38.02.04.04.07.05.11.66,1.79.91,3.36.75,4.71-.61,5.07-.4,9.72.64,13.94.29,1.21.45,2.36.48,3.47.04,1.33-.63,2.57-1.75,3.28-2.74,1.75-5.4,2.23-8.48,3.08-15.13,4.17-29.38,5.68-45.31,6.74-6.93.46-17.96.58-33.07.35-7.25-.11-13.31-.47-18.18-1.07-8.11-1-15.9-1.34-24.1-2.98-13.27-2.67-24.07-4.96-32.39-6.87-5.43-1.24-10.31-4.28-15.23-6.4-.79-.34-1.32-1.1-1.38-1.96-.41-6.58-.07-13.59,1.03-21.03.06-.39.42-.67.81-.61.06,0,.13.03.19.05,5.91,2.61,11.9,4.74,17.96,6.39,4.28,1.16,8.69,1.44,12.86,2.62,1.66.47,3.37.83,5.13,1.06,5.25.69,9.11,1.32,11.59,1.88,4.42,1.01,9.11.61,13.3,1.11,5.95.71,12.11,1.19,18.48,1.43,15.53.57,29.69.56,42.49-.04,16.31-.77,31.98-2.98,46.99-6.61.07-.02.13-.04.19-.07l5.72-2.96Z"/>
  <path class="st5" d="M281.53,1062.83c1.08,7.07,1.51,14.16,1.3,21.27-.02.61-.35,1.17-.87,1.48-4.13,2.5-8.5,4.3-13.12,5.4-2.35.56-5.25,1.31-8.71,2.26-11.41,3.11-20.03,5.04-25.88,5.78-9.19,1.16-24.39,3.45-35.46,3.84-16.38.58-33.89.72-50.77-.99-14.74-1.49-28.16-3.02-40.96-7.36-1.09-.37-2.26-.92-3.52-1.65-1-.58-1.57-1.68-1.48-2.83l1.7-21.39c.06-.8.77-1.4,1.57-1.34.2.02.39.07.56.16,4.89,2.54,10,4.21,15.35,5.02,2.77.42,9.23,1.35,19.38,2.79,7.58,1.07,14.07,1.65,19.47,1.73,16.94.26,33.63.67,49.51-1.18,6.71-.78,9.35-.77,15.23-.96,1.95-.07,3.97-.29,6.05-.68,5.29-.97,9.2-1.74,11.71-2.3,2.66-.59,6.25-1.19,10.76-1.79,5.81-.77,9.42-1.39,10.83-1.86,10.87-3.7,16.44-5.61,16.73-5.74.22-.1.48,0,.59.23.02.04.03.07.03.11Z"/>
</svg>